M48
;Layer_Color=9474304
;FILE_FORMAT=2:5
INCH,LZ
;TYPE=PLATED
T1F00S00C0.01200
T2F00S00C0.02400
T3F00S00C0.02800
T4F00S00C0.03937
T5F00S00C0.05906
T6F00S00C0.11811
T7F00S00C0.13780
%
T01
X01125Y00685
X01364Y00844
X01425Y0115499
T02
X0164Y00335
X0169
X0185595Y0033405
X0191Y00335
X0194Y007
X01875
X01805
X0174
X0148Y0071
Y0066
X0143
Y0071
X0145Y00335
X01505
X0129
X01235Y0033405
X0109Y00335
X0079Y0038
X0147Y0075
X0152
X01575
X0158Y00865
X01591Y00972
Y01021
X01635Y0119
X01845Y0121
Y01165
Y0112
X01895
X0194
Y01165
X01895
Y0121
X0194
Y0107
Y01025
X01895
Y0107
X01845
Y01025
X01775Y0094
X0173
X01685
X0165Y00975
X0174Y0088
Y0082
Y0076
X01805
Y0082
Y0088
X01875
Y0082
Y0076
X0194
Y0082
Y0088
X0207Y009
X0212
Y00855
Y0081
Y00765
T03
X017Y0006
Y0012
Y00185
X0178
Y0012
Y0006
X01855
Y0012
Y00185
X02115
Y0012
Y0006
X02195
Y0012
Y00185
X0227
Y0012
Y0006
X0235Y001
Y0016
X0220339Y0033839
X0215743Y0029243
X02115Y0025
X01445Y00185
Y0012
Y0006
X0137
Y0012
Y00185
X01295
Y0012
Y0006
X01045
Y0012
X00985
Y0006
Y00185
X01045
X00805Y00195
X00795Y0006
X0073
X0067
X00605
X00545
X00485
Y0012
X00545
X00605
Y00185
X00545
X00485
X00305
Y0012
Y0006
X0031Y0055
Y0061
Y00675
X0056Y00695
Y00625
Y00555
Y00485
Y00415
Y00345
X0007Y003675
Y00306
Y002445
Y00183
Y001215
Y0006
Y00429
Y004905
Y00552
Y006135
Y00675
Y00765
Y0082667
Y0088833
Y0095
X0016Y00885
Y0077
X00305
X00465
X0056
Y00885
X0036
X01705Y01445
X01764
Y01503
X01707
T04
X01986Y001372
Y0033405
X015745
Y001372
X01163
Y0033405
X01286Y01662
Y01862
X01698
Y01662
X0211
X0211Y01862
T05
X0021015Y0013457
Y0033142
X00407
Y0013457
Y0062557
X0021015
Y0082242
X00407
Y0121615
Y01413
X0021015
Y0121615
Y0170664
Y0190349
X00407
Y0170664
T06
X0233326Y0030126
X02579Y00215
X0258381Y0055181
X0129947Y0149453
T07
X0322Y0015
Y01939
M30
