G04*
G04 #@! TF.GenerationSoftware,Altium Limited,Altium Designer,20.2.8 (258)*
G04*
G04 Layer_Color=8421504*
%FSLAX25Y25*%
%MOIN*%
G70*
G04*
G04 #@! TF.SameCoordinates,527F6DBC-4CBC-4D53-8A28-EBD6D6C4F68D*
G04*
G04*
G04 #@! TF.FilePolarity,Positive*
G04*
G01*
G75*
%ADD19R,0.06299X0.06000*%
%ADD20R,0.06437X0.10630*%
%ADD21O,0.04811X0.01433*%
%ADD22R,0.07874X0.07874*%
%ADD23R,0.04724X0.03661*%
%ADD24R,0.05512X0.04724*%
%ADD25R,0.05421X0.04459*%
%ADD26R,0.03150X0.03543*%
%ADD27R,0.05102X0.06919*%
%ADD28R,0.05049X0.11055*%
%ADD29R,0.03175X0.03402*%
%ADD30R,0.09843X0.04724*%
%ADD31R,0.25591X0.23622*%
%ADD32R,0.09354X0.08691*%
%ADD33R,0.10630X0.06437*%
%ADD34R,0.11929X0.15039*%
G36*
X100711Y127040D02*
Y124333D01*
X98867Y122817D01*
X97133D01*
X95290Y124333D01*
Y127040D01*
X95683Y127434D01*
X100317D01*
X100711Y127040D01*
D02*
G37*
G36*
Y118467D02*
Y115760D01*
X100317Y115366D01*
X95683D01*
X95290Y115760D01*
Y118467D01*
X97133Y119983D01*
X98867D01*
X100711Y118467D01*
D02*
G37*
G36*
X127744Y113321D02*
Y110601D01*
X127350Y110207D01*
X125949D01*
X125556Y109813D01*
Y106987D01*
X125949Y106593D01*
X127350D01*
X127744Y106199D01*
Y103479D01*
X127350Y103085D01*
X121701D01*
X121307Y103479D01*
Y113321D01*
X121701Y113715D01*
X127350D01*
X127744Y113321D01*
D02*
G37*
G36*
X100499Y109534D02*
Y99266D01*
X100105Y98872D01*
X95843D01*
X95450Y99266D01*
Y102127D01*
X95843Y102521D01*
X96773D01*
X97166Y102914D01*
Y105886D01*
X96773Y106279D01*
X95843D01*
X95450Y106673D01*
Y109534D01*
X95843Y109928D01*
X100105D01*
X100499Y109534D01*
D02*
G37*
G36*
X89150D02*
Y106673D01*
X88757Y106279D01*
X87827D01*
X87434Y105886D01*
Y102914D01*
X87827Y102521D01*
X88757D01*
X89150Y102127D01*
Y99266D01*
X88757Y98872D01*
X84495D01*
X84101Y99266D01*
Y109534D01*
X84495Y109928D01*
X88757D01*
X89150Y109534D01*
D02*
G37*
G36*
X128505Y82372D02*
X128701Y82175D01*
X128701Y79025D01*
X128505Y78828D01*
X125394D01*
X125198Y79025D01*
Y79923D01*
X126694D01*
Y81222D01*
X125198D01*
Y82175D01*
X125394Y82372D01*
X128505Y82372D01*
D02*
G37*
G36*
X122442Y82175D02*
Y81222D01*
X120985D01*
Y79923D01*
X122442D01*
Y79025D01*
X122245Y78828D01*
X119095D01*
X118898Y79025D01*
X118898Y82175D01*
X119095Y82372D01*
X122245Y82372D01*
X122442Y82175D01*
D02*
G37*
G36*
X115302D02*
X115302Y79025D01*
X115105Y78828D01*
X111994D01*
X111798Y79025D01*
X111798Y79923D01*
X113294D01*
Y81222D01*
X111798D01*
Y82175D01*
X111994Y82372D01*
X115105D01*
X115302Y82175D01*
D02*
G37*
G36*
X108845Y82372D02*
X109042Y82175D01*
X109042Y81222D01*
X107585D01*
Y79923D01*
X109042D01*
Y79025D01*
X108845Y78828D01*
X105695D01*
X105498Y79025D01*
Y82175D01*
X105695Y82372D01*
X108845Y82372D01*
D02*
G37*
G36*
X76515Y32361D02*
Y26712D01*
X76121Y26318D01*
X73401Y26318D01*
X73007Y26712D01*
X73007Y28113D01*
X72613Y28507D01*
X69787D01*
X69393Y28113D01*
Y26712D01*
X68999Y26318D01*
X66279Y26318D01*
X65885Y26712D01*
Y32361D01*
X66279Y32755D01*
X76121D01*
X76515Y32361D01*
D02*
G37*
G36*
X76515Y20413D02*
X76515Y14763D01*
X76121Y14369D01*
X66279Y14369D01*
X65885Y14763D01*
Y20413D01*
X66279Y20806D01*
X68999Y20806D01*
X69393Y20413D01*
Y19011D01*
X69787Y18618D01*
X72613D01*
X73007Y19011D01*
Y20413D01*
X73401Y20806D01*
X76121D01*
X76515Y20413D01*
D02*
G37*
G36*
X221321Y151793D02*
X221715Y151399D01*
Y145750D01*
X221321Y145356D01*
X218601Y145356D01*
X218207Y145750D01*
Y147151D01*
X217813Y147545D01*
X214987D01*
X214593Y147151D01*
X214593Y145750D01*
X214199Y145356D01*
X211479D01*
X211085Y145750D01*
Y151399D01*
X211479Y151793D01*
X221321Y151793D01*
D02*
G37*
G36*
X207115Y151399D02*
Y145750D01*
X206721Y145356D01*
X204001Y145356D01*
X203607Y145750D01*
Y147151D01*
X203213Y147545D01*
X200387D01*
X199993Y147151D01*
X199993Y145750D01*
X199599Y145356D01*
X196879Y145356D01*
X196485Y145750D01*
Y151399D01*
X196879Y151793D01*
X206721D01*
X207115Y151399D01*
D02*
G37*
G36*
X192515Y151399D02*
Y145750D01*
X192121Y145356D01*
X189401D01*
X189007Y145750D01*
Y147151D01*
X188613Y147545D01*
X185787D01*
X185393Y147151D01*
Y145750D01*
X184999Y145356D01*
X182279D01*
X181885Y145750D01*
X181885Y151399D01*
X182279Y151793D01*
X192121D01*
X192515Y151399D01*
D02*
G37*
G36*
X221715Y139450D02*
Y133801D01*
X221321Y133407D01*
X211479Y133407D01*
X211085Y133801D01*
Y139450D01*
X211479Y139844D01*
X214199D01*
X214593Y139450D01*
Y138049D01*
X214987Y137655D01*
X217813Y137655D01*
X218207Y138049D01*
X218207Y139450D01*
X218601Y139844D01*
X221321D01*
X221715Y139450D01*
D02*
G37*
G36*
X207115Y139450D02*
Y133801D01*
X206721Y133407D01*
X196879Y133407D01*
X196485Y133801D01*
X196485Y139450D01*
X196879Y139844D01*
X199599D01*
X199993Y139450D01*
X199993Y138049D01*
X200387Y137655D01*
X203213D01*
X203607Y138049D01*
X203607Y139450D01*
X204001Y139844D01*
X206721D01*
X207115Y139450D01*
D02*
G37*
G36*
X192515Y139450D02*
Y133801D01*
X192121Y133407D01*
X182279Y133407D01*
X181885Y133801D01*
Y139450D01*
X182279Y139844D01*
X184999Y139844D01*
X185393Y139450D01*
Y138049D01*
X185787Y137655D01*
X188613D01*
X189007Y138049D01*
X189007Y139450D01*
X189401Y139844D01*
X192121D01*
X192515Y139450D01*
D02*
G37*
G36*
X139693Y113321D02*
Y103479D01*
X139299Y103085D01*
X133650D01*
X133256Y103479D01*
Y106199D01*
X133650Y106593D01*
X135051D01*
X135444Y106987D01*
Y109813D01*
X135051Y110207D01*
X133650D01*
X133256Y110601D01*
Y113321D01*
X133650Y113715D01*
X139299D01*
X139693Y113321D01*
D02*
G37*
G36*
X196793Y61421D02*
Y51579D01*
X196399Y51185D01*
X190750D01*
X190356Y51579D01*
Y54299D01*
X190750Y54693D01*
X192151D01*
X192544Y55087D01*
Y57913D01*
X192151Y58307D01*
X190750D01*
X190356Y58701D01*
Y61421D01*
X190750Y61815D01*
X196399D01*
X196793Y61421D01*
D02*
G37*
G36*
X184844D02*
Y58701D01*
X184450Y58307D01*
X183049D01*
X182656Y57913D01*
Y55087D01*
X183049Y54693D01*
X184450D01*
X184844Y54299D01*
Y51579D01*
X184450Y51185D01*
X178801D01*
X178407Y51579D01*
Y61421D01*
X178801Y61815D01*
X184450D01*
X184844Y61421D01*
D02*
G37*
G36*
X173099Y61634D02*
Y51366D01*
X172705Y50972D01*
X168443Y50972D01*
X168050Y51366D01*
Y54227D01*
X168443Y54621D01*
X169373Y54621D01*
X169766Y55014D01*
X169766Y57986D01*
X169373Y58379D01*
X168443Y58379D01*
X168050Y58773D01*
Y61634D01*
X168443Y62028D01*
X172705Y62028D01*
X173099Y61634D01*
D02*
G37*
G36*
X161357Y62028D02*
X161750Y61634D01*
Y58773D01*
X161357Y58379D01*
X160427Y58379D01*
X160034Y57986D01*
X160034Y55014D01*
X160427Y54621D01*
X161357Y54621D01*
X161750Y54227D01*
Y51366D01*
X161357Y50972D01*
X157095Y50972D01*
X156701Y51366D01*
Y61634D01*
X157095Y62028D01*
X161357Y62028D01*
D02*
G37*
D19*
X86720Y91235D02*
D03*
Y77735D02*
D03*
D20*
X124526Y108400D02*
D03*
X136474D02*
D03*
X193574Y56500D02*
D03*
X181626D02*
D03*
D21*
X134068Y88661D02*
D03*
X134069Y91220D02*
D03*
Y93779D02*
D03*
X134068Y96339D02*
D03*
X124532Y88661D02*
D03*
X124532Y91220D02*
D03*
Y93779D02*
D03*
X124532Y96339D02*
D03*
D22*
X124445Y122500D02*
D03*
X142555D02*
D03*
D23*
X86600Y115301D02*
D03*
Y127899D02*
D03*
D24*
X98000Y80585D02*
D03*
X98000Y91215D02*
D03*
D25*
X98000Y125204D02*
D03*
Y117596D02*
D03*
D26*
X126556Y73400D02*
D03*
X121045D02*
D03*
D27*
X135200Y66061D02*
D03*
Y79339D02*
D03*
D28*
X86626Y104400D02*
D03*
X97974D02*
D03*
X159226Y56500D02*
D03*
X170574Y56500D02*
D03*
D29*
X113365Y80600D02*
D03*
X107434D02*
D03*
X126766D02*
D03*
X120835D02*
D03*
D30*
X167319Y120900D02*
D03*
X167319Y102900D02*
D03*
X157019Y87800D02*
D03*
X157019Y69800D02*
D03*
D31*
X194681Y111900D02*
D03*
X184381Y78800D02*
D03*
D32*
X86800Y35221D02*
D03*
Y11904D02*
D03*
D33*
X71200Y29537D02*
D03*
X71200Y17588D02*
D03*
X216400Y136626D02*
D03*
X216400Y148574D02*
D03*
X201800Y136626D02*
D03*
X201800Y148574D02*
D03*
X187200Y136626D02*
D03*
X187200Y148574D02*
D03*
D34*
X99124Y188900D02*
D03*
X72076D02*
D03*
X99124Y163100D02*
D03*
X72076D02*
D03*
M02*
