G04*
G04 #@! TF.GenerationSoftware,Altium Limited,Altium Designer,20.2.8 (258)*
G04*
G04 Layer_Physical_Order=1*
G04 Layer_Color=255*
%FSLAX25Y25*%
%MOIN*%
G70*
G04*
G04 #@! TF.SameCoordinates,527F6DBC-4CBC-4D53-8A28-EBD6D6C4F68D*
G04*
G04*
G04 #@! TF.FilePolarity,Positive*
G04*
G01*
G75*
%ADD19R,0.06299X0.06000*%
%ADD20R,0.06437X0.10630*%
%ADD21O,0.04811X0.01433*%
%ADD22R,0.07874X0.07874*%
%ADD23R,0.04724X0.03661*%
%ADD24R,0.05512X0.04724*%
%ADD25R,0.05421X0.04459*%
%ADD26R,0.03150X0.03543*%
%ADD27R,0.05102X0.06919*%
%ADD28R,0.05049X0.11055*%
%ADD29R,0.03175X0.03402*%
%ADD30R,0.09843X0.04724*%
%ADD31R,0.25591X0.23622*%
%ADD32R,0.09354X0.08691*%
%ADD33R,0.10630X0.06437*%
%ADD34R,0.11929X0.15039*%
%ADD35C,0.02400*%
%ADD36C,0.03600*%
%ADD63C,0.01200*%
%ADD64R,0.13000X0.12000*%
%ADD65C,0.13780*%
%ADD66C,0.06299*%
%ADD67C,0.19685*%
%ADD68C,0.19685*%
%ADD69C,0.09055*%
%ADD70C,0.03600*%
%ADD71C,0.05000*%
%ADD72C,0.02400*%
G36*
X243500Y196500D02*
X243500Y133500D01*
X234500Y124500D01*
X216500Y124500D01*
X212300Y120300D01*
X212300Y103800D01*
X208500Y100000D01*
X208000Y99500D01*
X181500D01*
X181000Y100000D01*
Y141166D01*
X181834Y142000D01*
X225000Y142000D01*
X226500Y143500D01*
X226500Y172000D01*
X223500Y175000D01*
X116000Y175000D01*
X109500Y168500D01*
X109500Y153500D01*
X107000Y151000D01*
X90500D01*
Y201144D01*
X95356Y206000D01*
X234000D01*
X243500Y196500D01*
D02*
G37*
G36*
X12500Y179500D02*
X51500D01*
X52500Y178500D01*
Y165000D01*
X47000Y159500D01*
X12500D01*
Y131000D01*
X62000Y131000D01*
X80000Y149000D01*
X108500D01*
X114000Y154500D01*
Y169000D01*
X117500Y172500D01*
X220500D01*
X223500Y169500D01*
Y145000D01*
X180500D01*
X175500Y140000D01*
X167500D01*
Y152500D01*
X168500Y153500D01*
X193000D01*
X193500Y154000D01*
Y154500D01*
X193000Y155000D01*
X168000D01*
X166000Y153000D01*
X166000Y145000D01*
Y140000D01*
X160064Y140000D01*
X155560Y135600D01*
X119600Y135600D01*
X115500Y131500D01*
X91000Y131500D01*
X80400Y120900D01*
X80400Y115000D01*
X75900Y110500D01*
X2000D01*
Y206000D01*
X12500D01*
Y179500D01*
D02*
G37*
G36*
X78500Y150500D02*
X61000Y133000D01*
X14500Y133000D01*
Y157000D01*
X48500D01*
X55500Y164000D01*
Y179000D01*
X53000Y181500D01*
X14500D01*
Y206000D01*
X78500D01*
Y150500D01*
D02*
G37*
G36*
X173000Y117500D02*
X172400Y116900D01*
X162900D01*
X141700Y95700D01*
X134068Y95700D01*
X134067Y96900D01*
X134400Y96900D01*
X135000Y97500D01*
X140500Y97500D01*
X161500Y118500D01*
X161500Y122600D01*
X163100Y124200D01*
X173000Y124200D01*
X173000Y117500D01*
D02*
G37*
G36*
X128400Y103700D02*
X126100Y101400D01*
X126100Y96400D01*
X122900D01*
X120100Y99200D01*
Y118400D01*
X124200Y122500D01*
X128400D01*
X128400Y103700D01*
D02*
G37*
G36*
X139600Y105011D02*
X136189Y101600D01*
X134600Y101600D01*
X130300Y97300D01*
X130300Y95600D01*
X127900Y93200D01*
X125600Y93200D01*
Y94400D01*
X127000Y94400D01*
X128200Y95600D01*
X128200Y99200D01*
X133500Y104500D01*
X133500Y107500D01*
X134581Y108581D01*
X139600D01*
X139600Y105011D01*
D02*
G37*
G36*
X162850Y90650D02*
X162850Y84850D01*
X162500Y84500D01*
X152000D01*
X151500Y85000D01*
X151500Y88500D01*
X150000Y90000D01*
X138000Y90000D01*
X137400Y90600D01*
X134069Y90600D01*
Y91800D01*
X161700Y91800D01*
X162850Y90650D01*
D02*
G37*
G36*
X138000Y86400D02*
X138000Y81500D01*
X135839Y79339D01*
X134761Y79339D01*
X132400Y81700D01*
X132400Y84200D01*
Y88600D01*
X135800Y88600D01*
X138000Y86400D01*
D02*
G37*
G36*
X64000Y98000D02*
X70500Y91500D01*
X70500Y63500D01*
X76000Y58000D01*
X129500Y58000D01*
X138500Y49000D01*
Y44500D01*
X143000Y40000D01*
X157000D01*
X161500Y35500D01*
X190000D01*
X190500Y36000D01*
Y36500D01*
X190000Y37000D01*
X162100Y37000D01*
X157500Y41600D01*
X144400Y41600D01*
X140500Y45500D01*
Y72000D01*
X146000Y77500D01*
X159000D01*
X163000Y73500D01*
X163000Y50500D01*
X165000Y48500D01*
X213500Y48500D01*
X217000Y45000D01*
X217000Y39500D01*
X202000Y24500D01*
X17500Y24500D01*
X15000Y27000D01*
X15000Y48500D01*
X47000Y48500D01*
X52000Y53500D01*
X52000Y70000D01*
X48500Y73500D01*
X2000Y73500D01*
Y98000D01*
X64000Y98000D01*
D02*
G37*
G36*
X176000Y99500D02*
X181500Y94000D01*
X212000Y94000D01*
X215000Y91000D01*
X215000Y70500D01*
X217000Y68500D01*
X262500Y68500D01*
X270500Y60500D01*
Y50000D01*
X265000Y44500D01*
X242500D01*
X240000Y47000D01*
X218500Y47000D01*
X215000Y50500D01*
X189500D01*
X189500Y61000D01*
X185500Y65000D01*
X172500Y65000D01*
X169000Y68500D01*
X169000Y89500D01*
X163900Y94600D01*
X157700D01*
X156000Y96300D01*
Y102000D01*
X160500Y106500D01*
X176000Y106500D01*
X176000Y99500D01*
D02*
G37*
G36*
X49500Y68500D02*
Y54500D01*
X46500Y51500D01*
X12500D01*
Y26000D01*
X16000Y22500D01*
X203000D01*
X216500Y36000D01*
X221500Y41000D01*
X238000Y41000D01*
X246500Y32500D01*
X246500Y5000D01*
X244000Y2500D01*
X2000Y2500D01*
Y71000D01*
X47000D01*
X49500Y68500D01*
D02*
G37*
G36*
X310902Y179121D02*
Y179079D01*
Y178996D01*
X310888Y178913D01*
X310874Y178802D01*
X310860Y178691D01*
X310804Y178427D01*
Y178413D01*
X310791Y178372D01*
X310763Y178302D01*
X310735Y178219D01*
X310652Y178011D01*
X310541Y177789D01*
X310527Y177775D01*
X310513Y177747D01*
X310471Y177691D01*
X310430Y177622D01*
X310305Y177483D01*
X310138Y177331D01*
X310124D01*
X310097Y177303D01*
X310055Y177275D01*
X309999Y177247D01*
X309833Y177192D01*
X309736Y177178D01*
X309639Y177164D01*
X308889D01*
X308820Y177178D01*
X308736Y177192D01*
X308528Y177247D01*
X308431Y177289D01*
X308334Y177344D01*
X308320Y177358D01*
X308306Y177372D01*
X308264Y177414D01*
X308209Y177469D01*
X308084Y177608D01*
X307959Y177761D01*
Y177775D01*
X307931Y177803D01*
X307904Y177844D01*
X307862Y177900D01*
X307751Y178038D01*
X307612Y178177D01*
X307598Y178191D01*
X307584Y178205D01*
X307543Y178233D01*
X307487Y178274D01*
X307404Y178316D01*
X307321Y178344D01*
X307223Y178358D01*
X307099Y178372D01*
X307071D01*
X306987Y178358D01*
X306876Y178316D01*
X306765Y178247D01*
X306751Y178233D01*
X306696Y178163D01*
X306627Y178080D01*
X306557Y177955D01*
Y177941D01*
X306543Y177927D01*
X306516Y177844D01*
X306488Y177733D01*
X306446Y177580D01*
Y177567D01*
Y177539D01*
X306432Y177497D01*
Y177455D01*
X306418Y177317D01*
X306404Y177150D01*
X305433D01*
Y177164D01*
Y177219D01*
Y177289D01*
X305447Y177386D01*
Y177511D01*
X305461Y177636D01*
X305502Y177900D01*
Y177913D01*
X305516Y177955D01*
X305530Y178025D01*
X305558Y178122D01*
X305613Y178316D01*
X305711Y178538D01*
X305724Y178552D01*
X305738Y178580D01*
X305766Y178635D01*
X305808Y178691D01*
X305919Y178843D01*
X306058Y178968D01*
X306071Y178982D01*
X306099Y178996D01*
X306141Y179024D01*
X306196Y179052D01*
X306363Y179107D01*
X306446Y179135D01*
X307543D01*
X307598Y179121D01*
X307668D01*
X307848Y179066D01*
X307931Y179024D01*
X308015Y178968D01*
X308028Y178955D01*
X308056Y178941D01*
X308098Y178899D01*
X308153Y178857D01*
X308278Y178746D01*
X308417Y178594D01*
X308431Y178580D01*
X308445Y178566D01*
X308542Y178469D01*
X308653Y178344D01*
X308792Y178219D01*
X308806D01*
X308834Y178191D01*
X308861Y178163D01*
X308917Y178136D01*
X309069Y178080D01*
X309153Y178066D01*
X309250Y178052D01*
X309305D01*
X309361Y178066D01*
X309430Y178094D01*
X309514Y178122D01*
X309597Y178177D01*
X309680Y178247D01*
X309750Y178344D01*
X309763Y178358D01*
X309777Y178399D01*
X309805Y178469D01*
X309847Y178552D01*
X309875Y178677D01*
X309902Y178802D01*
X309916Y178968D01*
X309930Y179135D01*
X310902D01*
Y179121D01*
D02*
G37*
G36*
X286417Y177400D02*
X284127D01*
Y179079D01*
X286417D01*
Y177400D01*
D02*
G37*
G36*
X257977Y173000D02*
X255798D01*
X252994Y179760D01*
Y173000D01*
X251481D01*
Y183091D01*
X253411D01*
X256450Y175498D01*
Y183091D01*
X257977D01*
Y173000D01*
D02*
G37*
G36*
X332166D02*
X329792D01*
X327655Y183091D01*
X329584D01*
X330958Y175013D01*
X331153D01*
X332721Y183091D01*
X334498D01*
X332166Y173000D01*
D02*
G37*
G36*
X273287Y175734D02*
Y175707D01*
Y175637D01*
Y175526D01*
X273273Y175387D01*
X273259Y175221D01*
X273231Y175027D01*
X273148Y174652D01*
Y174624D01*
X273120Y174568D01*
X273093Y174471D01*
X273051Y174360D01*
X272995Y174221D01*
X272926Y174069D01*
X272759Y173777D01*
X272745Y173763D01*
X272718Y173722D01*
X272662Y173652D01*
X272593Y173569D01*
X272496Y173486D01*
X272398Y173389D01*
X272274Y173292D01*
X272149Y173208D01*
X272135Y173194D01*
X272093Y173180D01*
X272010Y173139D01*
X271913Y173111D01*
X271802Y173069D01*
X271663Y173028D01*
X271510Y173014D01*
X271344Y173000D01*
X268568D01*
X268484Y173014D01*
X268373Y173028D01*
X268248Y173056D01*
X268110Y173083D01*
X267971Y173139D01*
X267832Y173208D01*
X267818Y173222D01*
X267776Y173250D01*
X267707Y173292D01*
X267624Y173361D01*
X267541Y173444D01*
X267429Y173541D01*
X267332Y173652D01*
X267235Y173777D01*
X267221Y173791D01*
X267194Y173847D01*
X267152Y173916D01*
X267096Y174027D01*
X267027Y174152D01*
X266971Y174305D01*
X266902Y174471D01*
X266846Y174652D01*
Y174680D01*
X266833Y174735D01*
X266805Y174846D01*
X266791Y174971D01*
X266763Y175137D01*
X266735Y175318D01*
X266722Y175526D01*
Y175734D01*
Y183091D01*
X268568D01*
Y175734D01*
Y175721D01*
Y175679D01*
Y175623D01*
X268582Y175554D01*
X268595Y175360D01*
X268623Y175151D01*
Y175137D01*
X268637Y175110D01*
X268651Y175054D01*
X268679Y174999D01*
X268734Y174846D01*
X268804Y174680D01*
Y174666D01*
X268831Y174652D01*
X268887Y174568D01*
X268970Y174457D01*
X269081Y174360D01*
X269095D01*
X269109Y174346D01*
X269192Y174305D01*
X269303Y174249D01*
X269456Y174235D01*
X270566D01*
X270663Y174249D01*
X270775Y174291D01*
X270899Y174360D01*
X270913D01*
X270927Y174388D01*
X270997Y174443D01*
X271094Y174555D01*
X271177Y174680D01*
Y174693D01*
X271191Y174721D01*
X271219Y174763D01*
X271246Y174818D01*
X271288Y174971D01*
X271344Y175151D01*
Y175165D01*
X271357Y175207D01*
X271371Y175262D01*
X271385Y175332D01*
Y175415D01*
X271399Y175512D01*
X271413Y175734D01*
Y183091D01*
X273287D01*
Y175734D01*
D02*
G37*
G36*
X325712Y176012D02*
X326753D01*
Y174804D01*
X325712D01*
Y173000D01*
X323921D01*
Y174804D01*
X320132D01*
Y176165D01*
X323338Y183091D01*
X325712D01*
Y176012D01*
D02*
G37*
G36*
X317272Y183077D02*
X317384Y183063D01*
X317495Y183035D01*
X317633Y182994D01*
X317758Y182938D01*
X317897Y182869D01*
X317911Y182855D01*
X317953Y182827D01*
X318022Y182772D01*
X318105Y182716D01*
X318202Y182619D01*
X318314Y182522D01*
X318411Y182397D01*
X318508Y182258D01*
X318522Y182244D01*
X318549Y182189D01*
X318605Y182105D01*
X318660Y181994D01*
X318716Y181869D01*
X318785Y181717D01*
X318855Y181536D01*
X318910Y181356D01*
Y181328D01*
X318938Y181272D01*
X318952Y181161D01*
X318980Y181036D01*
X319007Y180870D01*
X319021Y180690D01*
X319049Y180481D01*
Y180259D01*
Y180231D01*
Y180162D01*
Y180051D01*
X319035Y179912D01*
X319021Y179746D01*
X318994Y179551D01*
X318910Y179177D01*
Y179149D01*
X318883Y179093D01*
X318855Y178996D01*
X318813Y178885D01*
X318758Y178746D01*
X318688Y178594D01*
X318522Y178302D01*
X318508Y178288D01*
X318480Y178247D01*
X318425Y178177D01*
X318355Y178094D01*
X318258Y178011D01*
X318161Y177913D01*
X318036Y177816D01*
X317911Y177733D01*
X317897Y177719D01*
X317856Y177705D01*
X317772Y177664D01*
X317689Y177636D01*
X317564Y177594D01*
X317425Y177553D01*
X317286Y177539D01*
X317120Y177525D01*
X315191D01*
X315093Y177497D01*
X314968Y177442D01*
X314899Y177400D01*
X314830Y177344D01*
X314760Y177261D01*
X314691Y177164D01*
X314621Y177039D01*
X314566Y176886D01*
X314510Y176720D01*
X314469Y176525D01*
X314455Y176290D01*
X314441Y176026D01*
Y174235D01*
X319091D01*
Y173000D01*
X312539D01*
Y176026D01*
Y176040D01*
Y176054D01*
Y176123D01*
X312553Y176248D01*
Y176387D01*
X312567Y176553D01*
X312595Y176748D01*
X312664Y177122D01*
Y177150D01*
X312692Y177206D01*
X312720Y177303D01*
X312761Y177414D01*
X312803Y177553D01*
X312873Y177705D01*
X313025Y177997D01*
X313039Y178011D01*
X313067Y178052D01*
X313122Y178122D01*
X313192Y178205D01*
X313275Y178302D01*
X313386Y178399D01*
X313497Y178497D01*
X313622Y178580D01*
X313636Y178594D01*
X313678Y178607D01*
X313761Y178649D01*
X313858Y178691D01*
X313969Y178719D01*
X314108Y178760D01*
X314247Y178774D01*
X314413Y178788D01*
X316315D01*
X316370Y178802D01*
X316440Y178816D01*
X316537Y178843D01*
X316648Y178899D01*
X316759Y178968D01*
X316856Y179079D01*
X316953Y179218D01*
X316967Y179232D01*
X316995Y179302D01*
X317037Y179385D01*
X317078Y179510D01*
X317120Y179676D01*
X317161Y179857D01*
X317189Y180065D01*
X317203Y180301D01*
Y180315D01*
Y180329D01*
Y180412D01*
X317189Y180537D01*
X317175Y180676D01*
X317148Y180856D01*
X317092Y181036D01*
X317037Y181217D01*
X316953Y181384D01*
X316939Y181397D01*
X316912Y181453D01*
X316856Y181522D01*
X316787Y181606D01*
X316690Y181689D01*
X316579Y181758D01*
X316454Y181814D01*
X316301Y181828D01*
X313483D01*
Y183091D01*
X317189D01*
X317272Y183077D01*
D02*
G37*
G36*
X302005D02*
X302116Y183063D01*
X302227Y183035D01*
X302365Y182994D01*
X302490Y182938D01*
X302629Y182869D01*
X302643Y182855D01*
X302685Y182827D01*
X302754Y182772D01*
X302837Y182716D01*
X302935Y182619D01*
X303046Y182522D01*
X303143Y182397D01*
X303240Y182258D01*
X303254Y182244D01*
X303281Y182189D01*
X303337Y182105D01*
X303393Y181994D01*
X303448Y181869D01*
X303517Y181717D01*
X303587Y181536D01*
X303642Y181356D01*
Y181328D01*
X303670Y181272D01*
X303684Y181161D01*
X303712Y181036D01*
X303740Y180870D01*
X303753Y180690D01*
X303781Y180481D01*
Y180259D01*
Y180231D01*
Y180162D01*
Y180051D01*
X303767Y179912D01*
X303753Y179746D01*
X303726Y179551D01*
X303642Y179177D01*
Y179149D01*
X303615Y179093D01*
X303587Y178996D01*
X303545Y178885D01*
X303490Y178746D01*
X303420Y178594D01*
X303254Y178302D01*
X303240Y178288D01*
X303212Y178247D01*
X303157Y178177D01*
X303087Y178094D01*
X302990Y178011D01*
X302893Y177913D01*
X302768Y177816D01*
X302643Y177733D01*
X302629Y177719D01*
X302588Y177705D01*
X302504Y177664D01*
X302421Y177636D01*
X302296Y177594D01*
X302157Y177553D01*
X302018Y177539D01*
X301852Y177525D01*
X299922D01*
X299825Y177497D01*
X299700Y177442D01*
X299631Y177400D01*
X299562Y177344D01*
X299492Y177261D01*
X299423Y177164D01*
X299353Y177039D01*
X299298Y176886D01*
X299242Y176720D01*
X299201Y176525D01*
X299187Y176290D01*
X299173Y176026D01*
Y174235D01*
X303823D01*
Y173000D01*
X297271D01*
Y176026D01*
Y176040D01*
Y176054D01*
Y176123D01*
X297285Y176248D01*
Y176387D01*
X297299Y176553D01*
X297327Y176748D01*
X297396Y177122D01*
Y177150D01*
X297424Y177206D01*
X297452Y177303D01*
X297494Y177414D01*
X297535Y177553D01*
X297605Y177705D01*
X297757Y177997D01*
X297771Y178011D01*
X297799Y178052D01*
X297854Y178122D01*
X297924Y178205D01*
X298007Y178302D01*
X298118Y178399D01*
X298229Y178497D01*
X298354Y178580D01*
X298368Y178594D01*
X298410Y178607D01*
X298493Y178649D01*
X298590Y178691D01*
X298701Y178719D01*
X298840Y178760D01*
X298979Y178774D01*
X299145Y178788D01*
X301047D01*
X301102Y178802D01*
X301172Y178816D01*
X301269Y178843D01*
X301380Y178899D01*
X301491Y178968D01*
X301588Y179079D01*
X301685Y179218D01*
X301699Y179232D01*
X301727Y179302D01*
X301769Y179385D01*
X301810Y179510D01*
X301852Y179676D01*
X301893Y179857D01*
X301921Y180065D01*
X301935Y180301D01*
Y180315D01*
Y180329D01*
Y180412D01*
X301921Y180537D01*
X301907Y180676D01*
X301880Y180856D01*
X301824Y181036D01*
X301769Y181217D01*
X301685Y181384D01*
X301671Y181397D01*
X301644Y181453D01*
X301588Y181522D01*
X301519Y181606D01*
X301422Y181689D01*
X301310Y181758D01*
X301186Y181814D01*
X301033Y181828D01*
X298215D01*
Y183091D01*
X301921D01*
X302005Y183077D01*
D02*
G37*
G36*
X293954Y174235D02*
X296092D01*
Y173000D01*
X289721D01*
Y174235D01*
X292025D01*
Y181800D01*
X290540D01*
Y183091D01*
X293954D01*
Y174235D01*
D02*
G37*
G36*
X286417Y173000D02*
X284127D01*
Y174666D01*
X286417D01*
Y173000D01*
D02*
G37*
G36*
X280740Y181828D02*
X278644D01*
Y173000D01*
X276729D01*
Y181828D01*
X274536D01*
Y183091D01*
X280740D01*
Y181828D01*
D02*
G37*
G36*
X263835Y183077D02*
X263932Y183063D01*
X264057Y183021D01*
X264181Y182980D01*
X264306Y182910D01*
X264445Y182827D01*
X264459Y182813D01*
X264501Y182785D01*
X264570Y182730D01*
X264653Y182647D01*
X264751Y182549D01*
X264862Y182438D01*
X264959Y182300D01*
X265056Y182147D01*
X265070Y182133D01*
X265098Y182078D01*
X265139Y181980D01*
X265195Y181855D01*
X265264Y181717D01*
X265320Y181536D01*
X265389Y181342D01*
X265445Y181134D01*
X265458Y181106D01*
X265472Y181036D01*
X265500Y180912D01*
X265528Y180759D01*
X265556Y180578D01*
X265569Y180370D01*
X265597Y180148D01*
Y179912D01*
Y179898D01*
Y179885D01*
Y179801D01*
Y179676D01*
X265583Y179510D01*
X265569Y179315D01*
X265542Y179107D01*
X265458Y178677D01*
Y178649D01*
X265431Y178580D01*
X265403Y178483D01*
X265361Y178344D01*
X265306Y178191D01*
X265236Y178038D01*
X265070Y177705D01*
X265056Y177691D01*
X265028Y177636D01*
X264973Y177567D01*
X264903Y177469D01*
X264806Y177372D01*
X264709Y177261D01*
X264584Y177164D01*
X264459Y177067D01*
X264445Y177053D01*
X264404Y177039D01*
X264320Y176997D01*
X264237Y176956D01*
X264112Y176914D01*
X263987Y176886D01*
X263835Y176859D01*
X263682Y176845D01*
X261058D01*
Y173000D01*
X259129D01*
Y183091D01*
X263751D01*
X263835Y183077D01*
D02*
G37*
G36*
X250190Y181828D02*
X248081D01*
Y174235D01*
X250190D01*
Y173000D01*
X244000D01*
Y174235D01*
X246137D01*
Y181828D01*
X244000D01*
Y183091D01*
X250190D01*
Y181828D01*
D02*
G37*
G36*
X272376Y133400D02*
X269673D01*
X268822Y138935D01*
X268729D01*
X267915Y133400D01*
X265194D01*
X263824Y146857D01*
X266194D01*
X267008Y136232D01*
X267082D01*
X268007Y143358D01*
X269562D01*
X270469Y136195D01*
X270562D01*
X271358Y146857D01*
X273727D01*
X272376Y133400D01*
D02*
G37*
G36*
X260622Y146838D02*
X260752Y146820D01*
X260918Y146783D01*
X261085Y146727D01*
X261251Y146653D01*
X261436Y146561D01*
X261455Y146542D01*
X261510Y146505D01*
X261603Y146449D01*
X261714Y146357D01*
X261844Y146246D01*
X261992Y146116D01*
X262121Y145968D01*
X262251Y145783D01*
X262269Y145765D01*
X262306Y145691D01*
X262380Y145598D01*
X262455Y145450D01*
X262528Y145283D01*
X262621Y145080D01*
X262714Y144839D01*
X262788Y144599D01*
X262806Y144562D01*
X262825Y144488D01*
X262862Y144339D01*
X262899Y144173D01*
X262936Y143951D01*
X262954Y143710D01*
X262991Y143432D01*
Y143155D01*
Y137047D01*
Y137009D01*
Y136917D01*
Y136769D01*
X262973Y136584D01*
X262954Y136362D01*
X262917Y136121D01*
X262806Y135621D01*
Y135584D01*
X262769Y135510D01*
X262732Y135381D01*
X262677Y135232D01*
X262603Y135047D01*
X262510Y134844D01*
X262269Y134455D01*
X262251Y134437D01*
X262214Y134381D01*
X262140Y134289D01*
X262047Y134177D01*
X261918Y134048D01*
X261788Y133918D01*
X261621Y133789D01*
X261455Y133678D01*
X261436Y133659D01*
X261381Y133641D01*
X261270Y133585D01*
X261159Y133548D01*
X260992Y133493D01*
X260826Y133437D01*
X260622Y133419D01*
X260418Y133400D01*
X256679D01*
X256568Y133419D01*
X256420Y133437D01*
X256254Y133474D01*
X256068Y133511D01*
X255883Y133585D01*
X255698Y133678D01*
X255680Y133696D01*
X255624Y133733D01*
X255532Y133789D01*
X255421Y133881D01*
X255310Y133992D01*
X255161Y134122D01*
X255032Y134270D01*
X254902Y134455D01*
X254884Y134474D01*
X254847Y134548D01*
X254791Y134640D01*
X254717Y134788D01*
X254625Y134955D01*
X254532Y135158D01*
X254440Y135381D01*
X254366Y135621D01*
Y135658D01*
X254329Y135732D01*
X254310Y135880D01*
X254273Y136047D01*
X254236Y136269D01*
X254218Y136510D01*
X254181Y136769D01*
Y137047D01*
Y143155D01*
Y143192D01*
Y143284D01*
X254199Y143432D01*
Y143636D01*
X254218Y143858D01*
X254255Y144099D01*
X254366Y144599D01*
X254384Y144636D01*
X254403Y144710D01*
X254440Y144839D01*
X254514Y145006D01*
X254588Y145191D01*
X254680Y145395D01*
X254902Y145783D01*
X254921Y145802D01*
X254958Y145857D01*
X255032Y145950D01*
X255143Y146061D01*
X255254Y146190D01*
X255402Y146320D01*
X255550Y146449D01*
X255717Y146561D01*
X255735Y146579D01*
X255809Y146616D01*
X255902Y146653D01*
X256031Y146709D01*
X256180Y146764D01*
X256365Y146820D01*
X256568Y146838D01*
X256772Y146857D01*
X260511D01*
X260622Y146838D01*
D02*
G37*
G36*
X251793Y145172D02*
X246499D01*
Y141729D01*
X250386D01*
X250497Y141711D01*
X250645Y141692D01*
X250793Y141656D01*
X250978Y141600D01*
X251145Y141526D01*
X251330Y141415D01*
X251348Y141396D01*
X251404Y141359D01*
X251497Y141285D01*
X251608Y141193D01*
X251737Y141063D01*
X251867Y140915D01*
X251996Y140749D01*
X252126Y140563D01*
X252144Y140545D01*
X252181Y140471D01*
X252237Y140360D01*
X252311Y140212D01*
X252403Y140027D01*
X252478Y139823D01*
X252552Y139582D01*
X252626Y139323D01*
Y139286D01*
X252663Y139194D01*
X252681Y139064D01*
X252718Y138879D01*
X252755Y138657D01*
X252774Y138416D01*
X252811Y138139D01*
Y137861D01*
Y137824D01*
Y137713D01*
X252792Y137546D01*
Y137343D01*
X252755Y137102D01*
X252718Y136824D01*
X252681Y136510D01*
X252607Y136214D01*
Y136177D01*
X252570Y136084D01*
X252533Y135917D01*
X252459Y135732D01*
X252385Y135510D01*
X252292Y135269D01*
X252052Y134770D01*
X252033Y134751D01*
X251996Y134677D01*
X251922Y134548D01*
X251811Y134418D01*
X251682Y134251D01*
X251552Y134085D01*
X251385Y133918D01*
X251200Y133770D01*
X251182Y133752D01*
X251126Y133715D01*
X251015Y133659D01*
X250886Y133585D01*
X250738Y133511D01*
X250553Y133456D01*
X250367Y133419D01*
X250164Y133400D01*
X244000D01*
Y135047D01*
X249109D01*
X249164Y135066D01*
X249238Y135084D01*
X249405Y135158D01*
X249498Y135214D01*
X249590Y135288D01*
X249608Y135307D01*
X249627Y135325D01*
X249683Y135381D01*
X249738Y135455D01*
X249849Y135658D01*
X249979Y135917D01*
Y135936D01*
X250016Y135991D01*
X250034Y136065D01*
X250071Y136177D01*
X250108Y136306D01*
X250164Y136454D01*
X250238Y136806D01*
Y136824D01*
X250256Y136898D01*
X250275Y136991D01*
X250293Y137120D01*
Y137269D01*
X250312Y137454D01*
X250330Y137824D01*
Y137842D01*
Y137879D01*
Y137935D01*
Y137990D01*
X250312Y138194D01*
X250293Y138435D01*
X250256Y138694D01*
X250219Y138971D01*
X250145Y139231D01*
X250053Y139471D01*
X250034Y139490D01*
X249997Y139564D01*
X249942Y139656D01*
X249849Y139767D01*
X249738Y139878D01*
X249590Y139971D01*
X249423Y140045D01*
X249220Y140064D01*
X244000D01*
Y146857D01*
X251793D01*
Y145172D01*
D02*
G37*
G36*
X261704Y155374D02*
X263684Y151600D01*
X262260D01*
X260650Y154736D01*
X260548Y154727D01*
Y151600D01*
X259244D01*
Y158325D01*
X260548D01*
Y155763D01*
X260641D01*
X262361Y158325D01*
X263703D01*
X261704Y155374D01*
D02*
G37*
G36*
X251918Y154014D02*
Y151600D01*
X250623D01*
Y154033D01*
X248939Y158325D01*
X250336D01*
X251289Y155115D01*
X251326D01*
X252279Y158325D01*
X253657D01*
X251918Y154014D01*
D02*
G37*
G36*
X283877Y157483D02*
X281065D01*
Y155383D01*
X283109D01*
Y154560D01*
X281065D01*
Y152423D01*
X283877D01*
Y151600D01*
X279761D01*
Y158325D01*
X283877D01*
Y157483D01*
D02*
G37*
G36*
X278789D02*
X275977D01*
Y155383D01*
X278022D01*
Y154560D01*
X275977D01*
Y152423D01*
X278789D01*
Y151600D01*
X274673D01*
Y158325D01*
X278789D01*
Y157483D01*
D02*
G37*
G36*
X270788Y152423D02*
X273766D01*
Y151600D01*
X269502D01*
Y158325D01*
X270788D01*
Y152423D01*
D02*
G37*
G36*
X268614Y157483D02*
X265802D01*
Y155383D01*
X267846D01*
Y154560D01*
X265802D01*
Y152423D01*
X268614D01*
Y151600D01*
X264498D01*
Y158325D01*
X268614D01*
Y157483D01*
D02*
G37*
G36*
X247099Y158316D02*
X247173Y158306D01*
X247256Y158288D01*
X247348Y158260D01*
X247432Y158223D01*
X247524Y158177D01*
X247533Y158168D01*
X247561Y158149D01*
X247607Y158121D01*
X247663Y158075D01*
X247728Y158019D01*
X247802Y157955D01*
X247867Y157881D01*
X247931Y157788D01*
X247940Y157779D01*
X247959Y157742D01*
X247996Y157696D01*
X248033Y157622D01*
X248070Y157538D01*
X248116Y157437D01*
X248163Y157317D01*
X248200Y157196D01*
Y157178D01*
X248218Y157141D01*
X248227Y157067D01*
X248246Y156983D01*
X248264Y156872D01*
X248273Y156752D01*
X248292Y156614D01*
Y156475D01*
Y156465D01*
Y156456D01*
Y156429D01*
Y156392D01*
X248283Y156308D01*
X248273Y156188D01*
X248255Y156059D01*
X248236Y155920D01*
X248200Y155781D01*
X248153Y155642D01*
X248144Y155624D01*
X248126Y155587D01*
X248098Y155522D01*
X248052Y155439D01*
X247996Y155346D01*
X247922Y155254D01*
X247830Y155161D01*
X247728Y155078D01*
X247737D01*
X247756Y155060D01*
X247783Y155041D01*
X247820Y155013D01*
X247903Y154921D01*
X247996Y154800D01*
X248005Y154791D01*
X248014Y154773D01*
X248042Y154736D01*
X248070Y154690D01*
X248107Y154625D01*
X248144Y154560D01*
X248218Y154403D01*
Y154393D01*
X248236Y154366D01*
X248246Y154320D01*
X248273Y154264D01*
X248292Y154199D01*
X248320Y154116D01*
X248357Y153940D01*
Y153931D01*
X248366Y153903D01*
X248375Y153857D01*
X248384Y153792D01*
X248394Y153718D01*
X248403Y153644D01*
X248412Y153478D01*
Y153459D01*
Y153413D01*
Y153330D01*
X248403Y153237D01*
X248394Y153126D01*
X248375Y152997D01*
X248320Y152738D01*
Y152719D01*
X248301Y152682D01*
X248283Y152618D01*
X248255Y152534D01*
X248218Y152442D01*
X248172Y152340D01*
X248052Y152137D01*
X248042Y152127D01*
X248024Y152100D01*
X247987Y152053D01*
X247940Y151998D01*
X247876Y151933D01*
X247811Y151868D01*
X247728Y151794D01*
X247644Y151739D01*
X247635Y151730D01*
X247607Y151720D01*
X247552Y151692D01*
X247497Y151674D01*
X247413Y151646D01*
X247321Y151619D01*
X247228Y151609D01*
X247117Y151600D01*
X244000D01*
Y158325D01*
X247043D01*
X247099Y158316D01*
D02*
G37*
G36*
X304282Y161700D02*
X302830D01*
X300961Y166205D01*
Y161700D01*
X299953D01*
Y168425D01*
X301239D01*
X303265Y163365D01*
Y168425D01*
X304282D01*
Y161700D01*
D02*
G37*
G36*
X258134D02*
X256784D01*
X256358Y164466D01*
X256312D01*
X255905Y161700D01*
X254545D01*
X253860Y168425D01*
X255045D01*
X255451Y163115D01*
X255488D01*
X255951Y166676D01*
X256728D01*
X257181Y163097D01*
X257227D01*
X257625Y168425D01*
X258809D01*
X258134Y161700D01*
D02*
G37*
G36*
X313033Y168415D02*
X313098D01*
X313172Y168406D01*
X313338Y168369D01*
X313523Y168314D01*
X313708Y168240D01*
X313893Y168129D01*
X313967Y168055D01*
X314041Y167981D01*
Y167972D01*
X314059Y167962D01*
X314078Y167935D01*
X314096Y167897D01*
X314124Y167851D01*
X314161Y167796D01*
X314189Y167722D01*
X314226Y167639D01*
X314263Y167546D01*
X314291Y167444D01*
X314328Y167324D01*
X314355Y167194D01*
X314374Y167056D01*
X314392Y166899D01*
X314411Y166732D01*
Y166556D01*
Y166547D01*
Y166538D01*
Y166510D01*
Y166473D01*
X314402Y166371D01*
X314383Y166251D01*
X314365Y166112D01*
X314328Y165964D01*
X314282Y165807D01*
X314217Y165659D01*
X314208Y165640D01*
X314180Y165594D01*
X314134Y165530D01*
X314069Y165446D01*
X313976Y165354D01*
X313865Y165261D01*
X313726Y165169D01*
X313560Y165085D01*
X313569D01*
X313597Y165076D01*
X313634Y165058D01*
X313680Y165039D01*
X313801Y164984D01*
X313921Y164910D01*
X313930D01*
X313948Y164891D01*
X313976Y164873D01*
X314022Y164845D01*
X314106Y164762D01*
X314198Y164660D01*
X314208Y164651D01*
X314217Y164632D01*
X314235Y164604D01*
X314263Y164558D01*
X314291Y164503D01*
X314328Y164447D01*
X314374Y164299D01*
Y164290D01*
X314383Y164262D01*
X314392Y164216D01*
X314411Y164161D01*
X314420Y164086D01*
X314429Y164003D01*
X314439Y163911D01*
Y163809D01*
Y161700D01*
X313209D01*
Y163328D01*
Y163347D01*
Y163383D01*
Y163448D01*
X313199Y163531D01*
X313190Y163624D01*
X313181Y163735D01*
X313135Y163976D01*
X313060Y164207D01*
X313014Y164318D01*
X312949Y164410D01*
X312885Y164494D01*
X312802Y164558D01*
X312709Y164595D01*
X312598Y164614D01*
X311442D01*
Y161700D01*
X310156D01*
Y168425D01*
X312977D01*
X313033Y168415D01*
D02*
G37*
G36*
X309268Y167583D02*
X306456D01*
Y165483D01*
X308500D01*
Y164660D01*
X306456D01*
Y162523D01*
X309268D01*
Y161700D01*
X305152D01*
Y168425D01*
X309268D01*
Y167583D01*
D02*
G37*
G36*
X299019D02*
X296734D01*
X296679Y167574D01*
X296596Y167546D01*
X296512Y167500D01*
X296494Y167481D01*
X296447Y167444D01*
X296392Y167370D01*
X296327Y167278D01*
Y167269D01*
X296318Y167250D01*
X296300Y167222D01*
X296281Y167185D01*
X296235Y167084D01*
X296198Y166954D01*
Y166945D01*
X296188Y166926D01*
Y166889D01*
X296179Y166843D01*
X296170Y166788D01*
Y166723D01*
X296161Y166575D01*
Y163522D01*
Y163513D01*
Y163485D01*
Y163448D01*
X296170Y163402D01*
X296179Y163282D01*
X296198Y163143D01*
Y163134D01*
X296207Y163115D01*
X296216Y163078D01*
X296235Y163041D01*
X296272Y162940D01*
X296318Y162829D01*
Y162819D01*
X296337Y162810D01*
X296374Y162745D01*
X296438Y162680D01*
X296512Y162607D01*
X296521D01*
X296531Y162597D01*
X296586Y162569D01*
X296660Y162532D01*
X296753Y162523D01*
X297927D01*
Y164660D01*
X296817D01*
Y165492D01*
X299121D01*
Y161700D01*
X296170D01*
X296114Y161709D01*
X296041Y161718D01*
X295957Y161737D01*
X295865Y161756D01*
X295772Y161793D01*
X295680Y161839D01*
X295671Y161848D01*
X295643Y161866D01*
X295597Y161894D01*
X295541Y161941D01*
X295485Y161996D01*
X295411Y162061D01*
X295347Y162135D01*
X295282Y162218D01*
X295273Y162227D01*
X295254Y162264D01*
X295227Y162311D01*
X295189Y162384D01*
X295143Y162468D01*
X295106Y162569D01*
X295060Y162680D01*
X295023Y162801D01*
Y162819D01*
X295005Y162856D01*
X294995Y162930D01*
X294977Y163014D01*
X294958Y163125D01*
X294949Y163245D01*
X294931Y163383D01*
Y163522D01*
Y166575D01*
Y166593D01*
Y166639D01*
X294940Y166714D01*
Y166815D01*
X294949Y166926D01*
X294968Y167046D01*
X295023Y167296D01*
X295032Y167315D01*
X295041Y167352D01*
X295060Y167417D01*
X295097Y167500D01*
X295134Y167592D01*
X295180Y167694D01*
X295291Y167888D01*
X295301Y167897D01*
X295319Y167925D01*
X295356Y167972D01*
X295402Y168027D01*
X295458Y168092D01*
X295532Y168157D01*
X295606Y168221D01*
X295689Y168277D01*
X295698Y168286D01*
X295735Y168305D01*
X295781Y168323D01*
X295846Y168351D01*
X295920Y168378D01*
X296013Y168406D01*
X296114Y168415D01*
X296216Y168425D01*
X299019D01*
Y167583D01*
D02*
G37*
G36*
X294005D02*
X292600D01*
Y162523D01*
X294005D01*
Y161700D01*
X289880D01*
Y162523D01*
X291304D01*
Y167583D01*
X289880D01*
Y168425D01*
X294005D01*
Y167583D01*
D02*
G37*
G36*
X288705D02*
X286494D01*
X286430Y167574D01*
X286347Y167555D01*
X286263Y167509D01*
X286245Y167500D01*
X286198Y167454D01*
X286143Y167389D01*
X286078Y167296D01*
Y167287D01*
X286069Y167278D01*
X286051Y167250D01*
X286041Y167213D01*
X286004Y167111D01*
X285967Y166991D01*
Y166982D01*
X285958Y166963D01*
Y166926D01*
X285949Y166880D01*
X285940Y166769D01*
X285930Y166630D01*
Y166621D01*
Y166612D01*
Y166556D01*
X285940Y166482D01*
X285949Y166381D01*
X285967Y166270D01*
X285995Y166149D01*
X286032Y166038D01*
X286087Y165927D01*
X286097Y165918D01*
X286115Y165890D01*
X286152Y165844D01*
X286198Y165798D01*
X286263Y165752D01*
X286337Y165705D01*
X286420Y165677D01*
X286513Y165668D01*
X287697D01*
X287762Y165659D01*
X287845Y165650D01*
X287937Y165631D01*
X288039Y165603D01*
X288141Y165567D01*
X288233Y165520D01*
X288243Y165511D01*
X288280Y165492D01*
X288326Y165465D01*
X288382Y165419D01*
X288456Y165363D01*
X288529Y165298D01*
X288603Y165224D01*
X288668Y165132D01*
X288678Y165122D01*
X288696Y165085D01*
X288733Y165039D01*
X288770Y164965D01*
X288807Y164882D01*
X288853Y164780D01*
X288890Y164660D01*
X288927Y164540D01*
Y164521D01*
X288946Y164484D01*
X288955Y164410D01*
X288973Y164318D01*
X288992Y164207D01*
X289001Y164077D01*
X289020Y163929D01*
Y163781D01*
Y163772D01*
Y163763D01*
Y163707D01*
X289011Y163624D01*
Y163513D01*
X288992Y163393D01*
X288973Y163254D01*
X288955Y163115D01*
X288918Y162967D01*
Y162949D01*
X288899Y162902D01*
X288881Y162829D01*
X288853Y162745D01*
X288816Y162634D01*
X288770Y162523D01*
X288650Y162301D01*
X288640Y162292D01*
X288622Y162255D01*
X288585Y162209D01*
X288539Y162144D01*
X288474Y162070D01*
X288400Y161996D01*
X288326Y161922D01*
X288233Y161857D01*
X288224Y161848D01*
X288187Y161829D01*
X288141Y161811D01*
X288076Y161783D01*
X288002Y161746D01*
X287910Y161728D01*
X287808Y161709D01*
X287706Y161700D01*
X284922D01*
Y162523D01*
X287188D01*
X287216Y162532D01*
X287253D01*
X287336Y162560D01*
X287429Y162607D01*
X287438D01*
X287447Y162625D01*
X287503Y162671D01*
X287567Y162745D01*
X287632Y162847D01*
Y162856D01*
X287651Y162875D01*
X287660Y162902D01*
X287679Y162949D01*
X287697Y162995D01*
X287716Y163060D01*
X287753Y163198D01*
Y163208D01*
X287762Y163235D01*
X287771Y163273D01*
X287780Y163328D01*
Y163393D01*
X287790Y163467D01*
X287799Y163633D01*
Y163643D01*
Y163680D01*
Y163735D01*
X287790Y163800D01*
X287780Y163948D01*
X287753Y164096D01*
Y164105D01*
X287743Y164133D01*
X287734Y164161D01*
X287716Y164207D01*
X287669Y164309D01*
X287595Y164401D01*
X287586Y164410D01*
X287577Y164419D01*
X287549Y164438D01*
X287521Y164466D01*
X287420Y164521D01*
X287299Y164567D01*
X287290D01*
X287262Y164577D01*
X287225Y164586D01*
X287170Y164595D01*
X287105D01*
X287022Y164604D01*
X286929Y164614D01*
X286051D01*
X285986Y164623D01*
X285903Y164632D01*
X285810Y164651D01*
X285708Y164669D01*
X285597Y164706D01*
X285495Y164752D01*
X285486Y164762D01*
X285449Y164780D01*
X285403Y164808D01*
X285348Y164854D01*
X285274Y164910D01*
X285199Y164974D01*
X285125Y165049D01*
X285051Y165132D01*
X285042Y165141D01*
X285024Y165178D01*
X284987Y165234D01*
X284950Y165298D01*
X284913Y165391D01*
X284866Y165483D01*
X284820Y165603D01*
X284783Y165724D01*
Y165742D01*
X284765Y165788D01*
X284755Y165853D01*
X284737Y165946D01*
X284718Y166057D01*
X284709Y166186D01*
X284691Y166334D01*
Y166482D01*
Y166491D01*
Y166501D01*
Y166547D01*
X284700Y166630D01*
Y166723D01*
X284709Y166843D01*
X284728Y166963D01*
X284783Y167232D01*
Y167250D01*
X284802Y167296D01*
X284820Y167361D01*
X284848Y167444D01*
X284885Y167546D01*
X284931Y167648D01*
X284987Y167750D01*
X285042Y167851D01*
X285051Y167860D01*
X285070Y167897D01*
X285107Y167944D01*
X285153Y167999D01*
X285209Y168064D01*
X285283Y168138D01*
X285357Y168203D01*
X285440Y168268D01*
X285449Y168277D01*
X285486Y168295D01*
X285532Y168314D01*
X285597Y168351D01*
X285681Y168378D01*
X285764Y168397D01*
X285865Y168415D01*
X285977Y168425D01*
X288705D01*
Y167583D01*
D02*
G37*
G36*
X283830D02*
X281018D01*
Y165483D01*
X283063D01*
Y164660D01*
X281018D01*
Y162523D01*
X283830D01*
Y161700D01*
X279714D01*
Y168425D01*
X283830D01*
Y167583D01*
D02*
G37*
G36*
X277661Y168415D02*
X277735Y168406D01*
X277809Y168388D01*
X277901Y168360D01*
X277984Y168323D01*
X278077Y168277D01*
X278086Y168268D01*
X278114Y168249D01*
X278160Y168221D01*
X278216Y168175D01*
X278280Y168120D01*
X278345Y168055D01*
X278410Y167981D01*
X278475Y167888D01*
X278484Y167879D01*
X278502Y167842D01*
X278530Y167796D01*
X278567Y167722D01*
X278613Y167639D01*
X278650Y167537D01*
X278697Y167417D01*
X278734Y167296D01*
X278743Y167278D01*
X278752Y167241D01*
X278771Y167167D01*
X278789Y167084D01*
X278808Y166972D01*
X278817Y166852D01*
X278836Y166714D01*
Y166575D01*
Y163522D01*
Y163504D01*
Y163458D01*
Y163383D01*
X278826Y163291D01*
X278817Y163180D01*
X278799Y163050D01*
X278743Y162801D01*
Y162782D01*
X278725Y162745D01*
X278706Y162680D01*
X278678Y162607D01*
X278641Y162514D01*
X278595Y162412D01*
X278484Y162218D01*
X278475Y162209D01*
X278456Y162181D01*
X278419Y162135D01*
X278373Y162079D01*
X278308Y162024D01*
X278243Y161959D01*
X278160Y161894D01*
X278077Y161839D01*
X278068Y161829D01*
X278040Y161820D01*
X277984Y161793D01*
X277929Y161774D01*
X277846Y161746D01*
X277763Y161718D01*
X277661Y161709D01*
X277559Y161700D01*
X274543D01*
Y168425D01*
X277605D01*
X277661Y168415D01*
D02*
G37*
G36*
X267245D02*
X267310D01*
X267384Y168406D01*
X267550Y168369D01*
X267736Y168314D01*
X267920Y168240D01*
X268106Y168129D01*
X268179Y168055D01*
X268253Y167981D01*
Y167972D01*
X268272Y167962D01*
X268290Y167935D01*
X268309Y167897D01*
X268337Y167851D01*
X268374Y167796D01*
X268402Y167722D01*
X268439Y167639D01*
X268476Y167546D01*
X268503Y167444D01*
X268540Y167324D01*
X268568Y167194D01*
X268586Y167056D01*
X268605Y166899D01*
X268623Y166732D01*
Y166556D01*
Y166547D01*
Y166538D01*
Y166510D01*
Y166473D01*
X268614Y166371D01*
X268596Y166251D01*
X268577Y166112D01*
X268540Y165964D01*
X268494Y165807D01*
X268429Y165659D01*
X268420Y165640D01*
X268392Y165594D01*
X268346Y165530D01*
X268281Y165446D01*
X268189Y165354D01*
X268078Y165261D01*
X267939Y165169D01*
X267773Y165085D01*
X267782D01*
X267810Y165076D01*
X267846Y165058D01*
X267893Y165039D01*
X268013Y164984D01*
X268133Y164910D01*
X268143D01*
X268161Y164891D01*
X268189Y164873D01*
X268235Y164845D01*
X268318Y164762D01*
X268411Y164660D01*
X268420Y164651D01*
X268429Y164632D01*
X268448Y164604D01*
X268476Y164558D01*
X268503Y164503D01*
X268540Y164447D01*
X268586Y164299D01*
Y164290D01*
X268596Y164262D01*
X268605Y164216D01*
X268623Y164161D01*
X268633Y164086D01*
X268642Y164003D01*
X268651Y163911D01*
Y163809D01*
Y161700D01*
X267421D01*
Y163328D01*
Y163347D01*
Y163383D01*
Y163448D01*
X267412Y163531D01*
X267403Y163624D01*
X267393Y163735D01*
X267347Y163976D01*
X267273Y164207D01*
X267227Y164318D01*
X267162Y164410D01*
X267097Y164494D01*
X267014Y164558D01*
X266921Y164595D01*
X266810Y164614D01*
X265654D01*
Y161700D01*
X264369D01*
Y168425D01*
X267190D01*
X267245Y168415D01*
D02*
G37*
G36*
X263480Y167583D02*
X260668D01*
Y165483D01*
X262713D01*
Y164660D01*
X260668D01*
Y162523D01*
X263480D01*
Y161700D01*
X259364D01*
Y168425D01*
X263480D01*
Y167583D01*
D02*
G37*
G36*
X252279Y168415D02*
X252344Y168406D01*
X252427Y168388D01*
X252510Y168360D01*
X252603Y168323D01*
X252695Y168277D01*
X252704Y168268D01*
X252741Y168249D01*
X252787Y168221D01*
X252843Y168175D01*
X252908Y168120D01*
X252973Y168055D01*
X253046Y167981D01*
X253111Y167888D01*
X253120Y167879D01*
X253139Y167842D01*
X253167Y167796D01*
X253204Y167722D01*
X253250Y167639D01*
X253287Y167537D01*
X253333Y167417D01*
X253370Y167296D01*
Y167278D01*
X253389Y167241D01*
X253398Y167167D01*
X253416Y167084D01*
X253435Y166972D01*
X253444Y166852D01*
X253463Y166714D01*
Y166575D01*
Y163522D01*
Y163504D01*
Y163458D01*
Y163383D01*
X253453Y163291D01*
X253444Y163180D01*
X253426Y163060D01*
X253370Y162810D01*
Y162792D01*
X253352Y162754D01*
X253333Y162690D01*
X253306Y162616D01*
X253269Y162523D01*
X253232Y162422D01*
X253120Y162227D01*
X253111Y162218D01*
X253093Y162190D01*
X253056Y162144D01*
X253010Y162089D01*
X252945Y162024D01*
X252880Y161959D01*
X252713Y161839D01*
X252704Y161829D01*
X252667Y161820D01*
X252621Y161793D01*
X252556Y161774D01*
X252473Y161746D01*
X252390Y161718D01*
X252288Y161709D01*
X252177Y161700D01*
X250281D01*
X250225Y161709D01*
X250151Y161718D01*
X250068Y161737D01*
X249985Y161756D01*
X249892Y161793D01*
X249800Y161839D01*
X249791Y161848D01*
X249763Y161866D01*
X249716Y161894D01*
X249661Y161941D01*
X249596Y161996D01*
X249522Y162061D01*
X249448Y162135D01*
X249383Y162227D01*
X249374Y162236D01*
X249356Y162274D01*
X249328Y162320D01*
X249291Y162394D01*
X249245Y162477D01*
X249208Y162579D01*
X249162Y162690D01*
X249125Y162810D01*
Y162829D01*
X249115Y162865D01*
X249097Y162940D01*
X249088Y163023D01*
X249069Y163134D01*
X249050Y163254D01*
X249041Y163383D01*
Y163522D01*
Y166575D01*
Y166593D01*
Y166639D01*
X249050Y166714D01*
Y166815D01*
X249060Y166926D01*
X249078Y167046D01*
X249125Y167296D01*
Y167315D01*
X249143Y167352D01*
X249162Y167417D01*
X249189Y167500D01*
X249226Y167592D01*
X249272Y167694D01*
X249383Y167888D01*
X249393Y167897D01*
X249411Y167925D01*
X249448Y167972D01*
X249504Y168027D01*
X249559Y168092D01*
X249633Y168157D01*
X249716Y168221D01*
X249800Y168277D01*
X249809Y168286D01*
X249846Y168305D01*
X249892Y168323D01*
X249957Y168351D01*
X250031Y168378D01*
X250124Y168406D01*
X250225Y168415D01*
X250327Y168425D01*
X252223D01*
X252279Y168415D01*
D02*
G37*
G36*
X247136D02*
X247200Y168406D01*
X247284Y168378D01*
X247367Y168351D01*
X247450Y168305D01*
X247543Y168249D01*
X247552Y168240D01*
X247580Y168221D01*
X247626Y168184D01*
X247681Y168129D01*
X247746Y168064D01*
X247820Y167990D01*
X247885Y167897D01*
X247950Y167796D01*
X247959Y167787D01*
X247977Y167750D01*
X248005Y167685D01*
X248042Y167602D01*
X248089Y167509D01*
X248126Y167389D01*
X248172Y167259D01*
X248209Y167121D01*
X248218Y167102D01*
X248227Y167056D01*
X248246Y166972D01*
X248264Y166871D01*
X248283Y166751D01*
X248292Y166612D01*
X248310Y166464D01*
Y166306D01*
Y166297D01*
Y166288D01*
Y166233D01*
Y166149D01*
X248301Y166038D01*
X248292Y165909D01*
X248273Y165770D01*
X248218Y165483D01*
Y165465D01*
X248200Y165419D01*
X248181Y165354D01*
X248153Y165261D01*
X248116Y165159D01*
X248070Y165058D01*
X247959Y164836D01*
X247950Y164827D01*
X247931Y164789D01*
X247894Y164743D01*
X247848Y164679D01*
X247783Y164614D01*
X247719Y164540D01*
X247635Y164475D01*
X247552Y164410D01*
X247543Y164401D01*
X247515Y164392D01*
X247460Y164364D01*
X247404Y164336D01*
X247321Y164309D01*
X247237Y164290D01*
X247136Y164271D01*
X247034Y164262D01*
X245286D01*
Y161700D01*
X244000D01*
Y168425D01*
X247080D01*
X247136Y168415D01*
D02*
G37*
G36*
X294260Y193100D02*
X291969D01*
Y194779D01*
X294260D01*
Y193100D01*
D02*
G37*
G36*
X309472Y188700D02*
X307099D01*
X304961Y198791D01*
X306890D01*
X308264Y190713D01*
X308459D01*
X310027Y198791D01*
X311804D01*
X309472Y188700D01*
D02*
G37*
G36*
X281129Y191434D02*
Y191407D01*
Y191337D01*
Y191226D01*
X281115Y191087D01*
X281101Y190921D01*
X281073Y190726D01*
X280990Y190352D01*
Y190324D01*
X280962Y190268D01*
X280935Y190171D01*
X280893Y190060D01*
X280837Y189921D01*
X280768Y189769D01*
X280602Y189477D01*
X280588Y189463D01*
X280560Y189422D01*
X280504Y189352D01*
X280435Y189269D01*
X280338Y189186D01*
X280241Y189089D01*
X280116Y188991D01*
X279991Y188908D01*
X279977Y188894D01*
X279935Y188880D01*
X279852Y188839D01*
X279755Y188811D01*
X279644Y188769D01*
X279505Y188728D01*
X279352Y188714D01*
X279186Y188700D01*
X276410D01*
X276326Y188714D01*
X276216Y188728D01*
X276091Y188756D01*
X275952Y188783D01*
X275813Y188839D01*
X275674Y188908D01*
X275660Y188922D01*
X275619Y188950D01*
X275549Y188991D01*
X275466Y189061D01*
X275383Y189144D01*
X275272Y189241D01*
X275174Y189352D01*
X275077Y189477D01*
X275063Y189491D01*
X275036Y189547D01*
X274994Y189616D01*
X274939Y189727D01*
X274869Y189852D01*
X274814Y190005D01*
X274744Y190171D01*
X274689Y190352D01*
Y190380D01*
X274675Y190435D01*
X274647Y190546D01*
X274633Y190671D01*
X274605Y190838D01*
X274578Y191018D01*
X274564Y191226D01*
Y191434D01*
Y198791D01*
X276410D01*
Y191434D01*
Y191420D01*
Y191379D01*
Y191323D01*
X276424Y191254D01*
X276438Y191060D01*
X276465Y190851D01*
Y190838D01*
X276479Y190810D01*
X276493Y190754D01*
X276521Y190699D01*
X276576Y190546D01*
X276646Y190380D01*
Y190366D01*
X276674Y190352D01*
X276729Y190268D01*
X276812Y190157D01*
X276923Y190060D01*
X276937D01*
X276951Y190046D01*
X277034Y190005D01*
X277145Y189949D01*
X277298Y189935D01*
X278409D01*
X278506Y189949D01*
X278617Y189991D01*
X278742Y190060D01*
X278755D01*
X278769Y190088D01*
X278839Y190144D01*
X278936Y190255D01*
X279019Y190380D01*
Y190393D01*
X279033Y190421D01*
X279061Y190463D01*
X279089Y190518D01*
X279130Y190671D01*
X279186Y190851D01*
Y190865D01*
X279200Y190907D01*
X279214Y190962D01*
X279227Y191032D01*
Y191115D01*
X279241Y191212D01*
X279255Y191434D01*
Y198791D01*
X281129D01*
Y191434D01*
D02*
G37*
G36*
X258227D02*
Y191407D01*
Y191337D01*
Y191226D01*
X258213Y191087D01*
X258199Y190921D01*
X258172Y190726D01*
X258088Y190352D01*
Y190324D01*
X258060Y190268D01*
X258033Y190171D01*
X257991Y190060D01*
X257936Y189921D01*
X257866Y189769D01*
X257700Y189477D01*
X257686Y189463D01*
X257658Y189422D01*
X257602Y189352D01*
X257533Y189269D01*
X257436Y189186D01*
X257339Y189089D01*
X257214Y188991D01*
X257089Y188908D01*
X257075Y188894D01*
X257033Y188880D01*
X256950Y188839D01*
X256853Y188811D01*
X256742Y188769D01*
X256603Y188728D01*
X256450Y188714D01*
X256284Y188700D01*
X253508D01*
X253425Y188714D01*
X253313Y188728D01*
X253189Y188756D01*
X253050Y188783D01*
X252911Y188839D01*
X252772Y188908D01*
X252758Y188922D01*
X252717Y188950D01*
X252647Y188991D01*
X252564Y189061D01*
X252481Y189144D01*
X252370Y189241D01*
X252273Y189352D01*
X252175Y189477D01*
X252161Y189491D01*
X252134Y189547D01*
X252092Y189616D01*
X252036Y189727D01*
X251967Y189852D01*
X251912Y190005D01*
X251842Y190171D01*
X251787Y190352D01*
Y190380D01*
X251773Y190435D01*
X251745Y190546D01*
X251731Y190671D01*
X251703Y190838D01*
X251676Y191018D01*
X251662Y191226D01*
Y191434D01*
Y198791D01*
X253508D01*
Y191434D01*
Y191420D01*
Y191379D01*
Y191323D01*
X253522Y191254D01*
X253536Y191060D01*
X253563Y190851D01*
Y190838D01*
X253577Y190810D01*
X253591Y190754D01*
X253619Y190699D01*
X253674Y190546D01*
X253744Y190380D01*
Y190366D01*
X253771Y190352D01*
X253827Y190268D01*
X253910Y190157D01*
X254021Y190060D01*
X254035D01*
X254049Y190046D01*
X254132Y190005D01*
X254243Y189949D01*
X254396Y189935D01*
X255506D01*
X255604Y189949D01*
X255715Y189991D01*
X255840Y190060D01*
X255854D01*
X255867Y190088D01*
X255937Y190144D01*
X256034Y190255D01*
X256117Y190380D01*
Y190393D01*
X256131Y190421D01*
X256159Y190463D01*
X256187Y190518D01*
X256228Y190671D01*
X256284Y190851D01*
Y190865D01*
X256298Y190907D01*
X256312Y190962D01*
X256325Y191032D01*
Y191115D01*
X256339Y191212D01*
X256353Y191434D01*
Y198791D01*
X258227D01*
Y191434D01*
D02*
G37*
G36*
X303281Y197528D02*
X299312D01*
Y194946D01*
X302227D01*
X302310Y194932D01*
X302421Y194918D01*
X302532Y194890D01*
X302671Y194849D01*
X302796Y194793D01*
X302935Y194710D01*
X302948Y194696D01*
X302990Y194668D01*
X303059Y194613D01*
X303143Y194544D01*
X303240Y194446D01*
X303337Y194335D01*
X303434Y194210D01*
X303531Y194072D01*
X303545Y194058D01*
X303573Y194002D01*
X303615Y193919D01*
X303670Y193808D01*
X303740Y193669D01*
X303795Y193516D01*
X303851Y193336D01*
X303906Y193142D01*
Y193114D01*
X303934Y193044D01*
X303948Y192947D01*
X303976Y192808D01*
X304003Y192642D01*
X304017Y192462D01*
X304045Y192253D01*
Y192045D01*
Y192017D01*
Y191934D01*
X304031Y191809D01*
Y191656D01*
X304003Y191476D01*
X303976Y191268D01*
X303948Y191032D01*
X303892Y190810D01*
Y190782D01*
X303864Y190713D01*
X303837Y190588D01*
X303781Y190449D01*
X303726Y190282D01*
X303656Y190102D01*
X303476Y189727D01*
X303462Y189713D01*
X303434Y189658D01*
X303379Y189561D01*
X303295Y189463D01*
X303198Y189339D01*
X303101Y189214D01*
X302976Y189089D01*
X302837Y188978D01*
X302823Y188964D01*
X302782Y188936D01*
X302698Y188894D01*
X302601Y188839D01*
X302490Y188783D01*
X302351Y188742D01*
X302213Y188714D01*
X302060Y188700D01*
X297438D01*
Y189935D01*
X301269D01*
X301310Y189949D01*
X301366Y189963D01*
X301491Y190019D01*
X301560Y190060D01*
X301630Y190116D01*
X301644Y190130D01*
X301658Y190144D01*
X301699Y190185D01*
X301741Y190241D01*
X301824Y190393D01*
X301921Y190588D01*
Y190602D01*
X301949Y190643D01*
X301963Y190699D01*
X301991Y190782D01*
X302018Y190879D01*
X302060Y190990D01*
X302116Y191254D01*
Y191268D01*
X302129Y191323D01*
X302143Y191393D01*
X302157Y191490D01*
Y191601D01*
X302171Y191740D01*
X302185Y192017D01*
Y192031D01*
Y192059D01*
Y192101D01*
Y192142D01*
X302171Y192295D01*
X302157Y192475D01*
X302129Y192670D01*
X302102Y192878D01*
X302046Y193072D01*
X301977Y193253D01*
X301963Y193266D01*
X301935Y193322D01*
X301893Y193391D01*
X301824Y193475D01*
X301741Y193558D01*
X301630Y193627D01*
X301505Y193683D01*
X301352Y193697D01*
X297438D01*
Y198791D01*
X303281D01*
Y197528D01*
D02*
G37*
G36*
X294260Y188700D02*
X291969D01*
Y190366D01*
X294260D01*
Y188700D01*
D02*
G37*
G36*
X288583Y197528D02*
X286487D01*
Y188700D01*
X284571D01*
Y197528D01*
X282378D01*
Y198791D01*
X288583D01*
Y197528D01*
D02*
G37*
G36*
X271677Y198777D02*
X271774Y198763D01*
X271899Y198721D01*
X272024Y198680D01*
X272149Y198610D01*
X272287Y198527D01*
X272301Y198513D01*
X272343Y198485D01*
X272412Y198430D01*
X272496Y198347D01*
X272593Y198249D01*
X272704Y198138D01*
X272801Y198000D01*
X272898Y197847D01*
X272912Y197833D01*
X272940Y197777D01*
X272981Y197680D01*
X273037Y197555D01*
X273106Y197417D01*
X273162Y197236D01*
X273231Y197042D01*
X273287Y196834D01*
X273301Y196806D01*
X273315Y196737D01*
X273342Y196612D01*
X273370Y196459D01*
X273398Y196279D01*
X273412Y196070D01*
X273440Y195848D01*
Y195612D01*
Y195598D01*
Y195584D01*
Y195501D01*
Y195376D01*
X273426Y195210D01*
X273412Y195015D01*
X273384Y194807D01*
X273301Y194377D01*
Y194349D01*
X273273Y194280D01*
X273245Y194183D01*
X273203Y194044D01*
X273148Y193891D01*
X273079Y193738D01*
X272912Y193405D01*
X272898Y193391D01*
X272870Y193336D01*
X272815Y193266D01*
X272745Y193169D01*
X272648Y193072D01*
X272551Y192961D01*
X272426Y192864D01*
X272301Y192767D01*
X272287Y192753D01*
X272246Y192739D01*
X272163Y192697D01*
X272079Y192656D01*
X271954Y192614D01*
X271829Y192586D01*
X271677Y192559D01*
X271524Y192545D01*
X268901D01*
Y188700D01*
X266971D01*
Y198791D01*
X271593D01*
X271677Y198777D01*
D02*
G37*
G36*
X265681Y197528D02*
X263585D01*
Y188700D01*
X261669D01*
Y197528D01*
X259476D01*
Y198791D01*
X265681D01*
Y197528D01*
D02*
G37*
G36*
X248858Y198777D02*
X248955Y198763D01*
X249080Y198735D01*
X249205Y198694D01*
X249344Y198638D01*
X249483Y198569D01*
X249497Y198555D01*
X249552Y198527D01*
X249621Y198485D01*
X249705Y198416D01*
X249802Y198333D01*
X249899Y198236D01*
X250010Y198125D01*
X250107Y197986D01*
X250121Y197972D01*
X250149Y197916D01*
X250190Y197847D01*
X250246Y197736D01*
X250315Y197611D01*
X250371Y197458D01*
X250440Y197278D01*
X250496Y197097D01*
Y197070D01*
X250524Y197014D01*
X250537Y196903D01*
X250565Y196778D01*
X250593Y196612D01*
X250607Y196431D01*
X250635Y196223D01*
Y196015D01*
Y191434D01*
Y191407D01*
Y191337D01*
Y191226D01*
X250621Y191087D01*
X250607Y190921D01*
X250579Y190740D01*
X250496Y190366D01*
Y190338D01*
X250468Y190282D01*
X250440Y190185D01*
X250399Y190074D01*
X250343Y189935D01*
X250288Y189783D01*
X250121Y189491D01*
X250107Y189477D01*
X250079Y189436D01*
X250024Y189366D01*
X249955Y189283D01*
X249857Y189186D01*
X249760Y189089D01*
X249510Y188908D01*
X249497Y188894D01*
X249441Y188880D01*
X249372Y188839D01*
X249274Y188811D01*
X249149Y188769D01*
X249025Y188728D01*
X248872Y188714D01*
X248705Y188700D01*
X245860D01*
X245777Y188714D01*
X245666Y188728D01*
X245541Y188756D01*
X245416Y188783D01*
X245277Y188839D01*
X245138Y188908D01*
X245124Y188922D01*
X245083Y188950D01*
X245013Y188991D01*
X244930Y189061D01*
X244833Y189144D01*
X244722Y189241D01*
X244611Y189352D01*
X244514Y189491D01*
X244500Y189505D01*
X244472Y189561D01*
X244430Y189630D01*
X244375Y189741D01*
X244305Y189866D01*
X244250Y190019D01*
X244180Y190185D01*
X244125Y190366D01*
Y190393D01*
X244111Y190449D01*
X244083Y190560D01*
X244069Y190685D01*
X244042Y190851D01*
X244014Y191032D01*
X244000Y191226D01*
Y191434D01*
Y196015D01*
Y196043D01*
Y196112D01*
X244014Y196223D01*
Y196376D01*
X244028Y196542D01*
X244056Y196723D01*
X244125Y197097D01*
Y197125D01*
X244153Y197181D01*
X244180Y197278D01*
X244222Y197403D01*
X244278Y197542D01*
X244347Y197694D01*
X244514Y197986D01*
X244527Y198000D01*
X244555Y198041D01*
X244611Y198111D01*
X244694Y198194D01*
X244777Y198291D01*
X244888Y198388D01*
X245013Y198485D01*
X245138Y198569D01*
X245152Y198583D01*
X245208Y198610D01*
X245277Y198638D01*
X245374Y198680D01*
X245485Y198721D01*
X245624Y198763D01*
X245777Y198777D01*
X245929Y198791D01*
X248775D01*
X248858Y198777D01*
D02*
G37*
%LPC*%
G36*
X323921Y181203D02*
X321520Y176012D01*
X323921D01*
Y181203D01*
D02*
G37*
G36*
X262849Y181828D02*
X261058D01*
Y178122D01*
X262891D01*
X262932Y178136D01*
X262988Y178149D01*
X263057Y178177D01*
X263141Y178219D01*
X263210Y178274D01*
X263307Y178344D01*
X263390Y178441D01*
X263460Y178566D01*
X263543Y178719D01*
X263612Y178885D01*
X263668Y179093D01*
X263710Y179343D01*
X263737Y179621D01*
X263751Y179940D01*
Y179968D01*
Y180023D01*
Y180120D01*
X263737Y180231D01*
X263723Y180384D01*
X263710Y180537D01*
X263640Y180884D01*
X263529Y181231D01*
X263460Y181384D01*
X263376Y181536D01*
X263265Y181647D01*
X263141Y181744D01*
X263002Y181814D01*
X262849Y181828D01*
D02*
G37*
G36*
X259548Y145172D02*
X257568D01*
X257512Y145154D01*
X257327Y145098D01*
X257161Y145006D01*
X257124Y144969D01*
X257031Y144895D01*
X256920Y144747D01*
X256790Y144562D01*
Y144543D01*
X256772Y144506D01*
X256735Y144450D01*
X256698Y144376D01*
X256624Y144173D01*
X256550Y143914D01*
Y143895D01*
X256531Y143858D01*
Y143784D01*
X256513Y143692D01*
X256494Y143580D01*
Y143451D01*
X256476Y143155D01*
Y136639D01*
X259548Y145172D01*
D02*
G37*
G36*
X260733Y143488D02*
X257697Y135047D01*
X259548D01*
X259678Y135066D01*
X259826Y135121D01*
X259993Y135214D01*
X260011D01*
X260030Y135251D01*
X260141Y135325D01*
X260252Y135473D01*
X260381Y135640D01*
Y135658D01*
X260418Y135695D01*
X260437Y135751D01*
X260474Y135825D01*
X260566Y136028D01*
X260641Y136269D01*
Y136288D01*
X260659Y136343D01*
X260678Y136417D01*
X260696Y136510D01*
Y136621D01*
X260715Y136750D01*
X260733Y137047D01*
Y143488D01*
D02*
G37*
G36*
X246470Y157483D02*
X245295D01*
Y155429D01*
X246498D01*
X246525Y155439D01*
X246562Y155448D01*
X246655Y155485D01*
X246710Y155513D01*
X246766Y155559D01*
X246812Y155605D01*
X246867Y155679D01*
X246914Y155753D01*
X246960Y155855D01*
X246997Y155966D01*
X247025Y156105D01*
X247043Y156262D01*
X247053Y156438D01*
Y156447D01*
Y156456D01*
Y156484D01*
Y156521D01*
X247043Y156614D01*
X247034Y156725D01*
X247016Y156845D01*
X246988Y156974D01*
X246951Y157095D01*
X246895Y157205D01*
X246886Y157215D01*
X246867Y157252D01*
X246831Y157298D01*
X246784Y157344D01*
X246729Y157400D01*
X246655Y157437D01*
X246571Y157474D01*
X246470Y157483D01*
D02*
G37*
G36*
X246581Y154597D02*
X245295D01*
Y152423D01*
X246590D01*
X246627Y152433D01*
X246673Y152442D01*
X246729Y152460D01*
X246794Y152497D01*
X246867Y152553D01*
X246932Y152618D01*
X246997Y152719D01*
X247006Y152738D01*
X247025Y152775D01*
X247053Y152840D01*
X247080Y152932D01*
X247108Y153052D01*
X247136Y153182D01*
X247154Y153339D01*
X247164Y153515D01*
Y153524D01*
Y153552D01*
Y153598D01*
X247154Y153654D01*
X247145Y153792D01*
X247117Y153940D01*
Y153949D01*
X247108Y153977D01*
X247099Y154014D01*
X247090Y154060D01*
X247053Y154172D01*
X246997Y154282D01*
Y154292D01*
X246988Y154310D01*
X246951Y154366D01*
X246886Y154440D01*
X246812Y154514D01*
X246794Y154523D01*
X246747Y154560D01*
X246673Y154588D01*
X246581Y154597D01*
D02*
G37*
G36*
X312626Y167583D02*
X311442D01*
Y165446D01*
X312635D01*
X312672Y165455D01*
X312727Y165465D01*
X312792Y165483D01*
X312857Y165520D01*
X312931Y165567D01*
X313005Y165640D01*
X313070Y165733D01*
X313079Y165742D01*
X313098Y165788D01*
X313125Y165853D01*
X313153Y165937D01*
X313181Y166048D01*
X313209Y166177D01*
X313227Y166334D01*
X313236Y166501D01*
Y166510D01*
Y166519D01*
Y166547D01*
Y166584D01*
X313227Y166676D01*
X313218Y166788D01*
X313199Y166917D01*
X313162Y167046D01*
X313125Y167167D01*
X313070Y167287D01*
X313060Y167296D01*
X313042Y167333D01*
X313005Y167379D01*
X312959Y167435D01*
X312894Y167490D01*
X312820Y167537D01*
X312727Y167574D01*
X312626Y167583D01*
D02*
G37*
G36*
X277013D02*
X275829D01*
Y162523D01*
X277032D01*
X277097Y162532D01*
X277170Y162560D01*
X277254Y162607D01*
X277263D01*
X277272Y162625D01*
X277328Y162662D01*
X277383Y162736D01*
X277448Y162829D01*
Y162838D01*
X277467Y162856D01*
X277476Y162884D01*
X277494Y162921D01*
X277531Y163023D01*
X277568Y163143D01*
Y163152D01*
X277577Y163171D01*
X277587Y163208D01*
X277596Y163263D01*
X277605Y163383D01*
X277614Y163522D01*
Y166575D01*
Y166584D01*
Y166612D01*
Y166649D01*
X277605Y166695D01*
X277596Y166824D01*
X277568Y166954D01*
Y166963D01*
X277559Y166982D01*
X277550Y167019D01*
X277540Y167065D01*
X277503Y167167D01*
X277448Y167278D01*
Y167287D01*
X277439Y167306D01*
X277393Y167361D01*
X277337Y167426D01*
X277254Y167500D01*
X277244D01*
X277235Y167509D01*
X277180Y167546D01*
X277106Y167574D01*
X277013Y167583D01*
D02*
G37*
G36*
X266838D02*
X265654D01*
Y165446D01*
X266847D01*
X266884Y165455D01*
X266940Y165465D01*
X267005Y165483D01*
X267070Y165520D01*
X267144Y165567D01*
X267217Y165640D01*
X267282Y165733D01*
X267291Y165742D01*
X267310Y165788D01*
X267338Y165853D01*
X267366Y165937D01*
X267393Y166048D01*
X267421Y166177D01*
X267440Y166334D01*
X267449Y166501D01*
Y166510D01*
Y166519D01*
Y166547D01*
Y166584D01*
X267440Y166676D01*
X267430Y166788D01*
X267412Y166917D01*
X267375Y167046D01*
X267338Y167167D01*
X267282Y167287D01*
X267273Y167296D01*
X267254Y167333D01*
X267217Y167379D01*
X267171Y167435D01*
X267107Y167490D01*
X267033Y167537D01*
X266940Y167574D01*
X266838Y167583D01*
D02*
G37*
G36*
X251622D02*
X250854D01*
X250789Y167574D01*
X250706Y167546D01*
X250623Y167500D01*
X250605Y167481D01*
X250558Y167444D01*
X250503Y167370D01*
X250438Y167278D01*
Y167269D01*
X250429Y167250D01*
X250410Y167222D01*
X250392Y167185D01*
X250355Y167084D01*
X250318Y166954D01*
Y166945D01*
X250308Y166926D01*
Y166889D01*
X250299Y166843D01*
X250290Y166788D01*
Y166723D01*
X250281Y166575D01*
Y163522D01*
Y163513D01*
Y163485D01*
Y163448D01*
X250290Y163402D01*
X250299Y163282D01*
X250318Y163143D01*
Y163134D01*
X250327Y163115D01*
X250336Y163078D01*
X250355Y163041D01*
X250392Y162940D01*
X250438Y162829D01*
Y162819D01*
X250447Y162810D01*
X250494Y162745D01*
X250549Y162680D01*
X250623Y162607D01*
X250632D01*
X250641Y162597D01*
X250697Y162569D01*
X250771Y162532D01*
X250873Y162523D01*
X251650D01*
X251677Y162532D01*
X251714D01*
X251798Y162560D01*
X251881Y162607D01*
X251890D01*
X251900Y162625D01*
X251946Y162662D01*
X252010Y162736D01*
X252066Y162819D01*
Y162829D01*
X252075Y162847D01*
X252094Y162875D01*
X252112Y162912D01*
X252140Y163014D01*
X252177Y163134D01*
Y163143D01*
X252186Y163171D01*
X252196Y163208D01*
X252205Y163254D01*
Y163310D01*
X252214Y163374D01*
X252223Y163522D01*
Y166575D01*
Y166584D01*
Y166612D01*
Y166649D01*
X252214Y166704D01*
X252205Y166824D01*
X252177Y166963D01*
Y166972D01*
X252168Y166991D01*
X252158Y167028D01*
X252149Y167074D01*
X252112Y167176D01*
X252057Y167287D01*
Y167296D01*
X252047Y167315D01*
X252010Y167370D01*
X251946Y167435D01*
X251872Y167500D01*
X251863D01*
X251853Y167509D01*
X251798Y167546D01*
X251724Y167574D01*
X251622Y167583D01*
D02*
G37*
G36*
X246479D02*
X245286D01*
Y165113D01*
X246507D01*
X246534Y165122D01*
X246571Y165132D01*
X246618Y165150D01*
X246673Y165178D01*
X246720Y165215D01*
X246784Y165261D01*
X246840Y165326D01*
X246886Y165409D01*
X246941Y165511D01*
X246988Y165622D01*
X247025Y165761D01*
X247053Y165927D01*
X247071Y166112D01*
X247080Y166325D01*
Y166343D01*
Y166381D01*
Y166445D01*
X247071Y166519D01*
X247062Y166621D01*
X247053Y166723D01*
X247006Y166954D01*
X246932Y167185D01*
X246886Y167287D01*
X246831Y167389D01*
X246757Y167463D01*
X246673Y167527D01*
X246581Y167574D01*
X246479Y167583D01*
D02*
G37*
G36*
X270691Y197528D02*
X268901D01*
Y193822D01*
X270733D01*
X270775Y193836D01*
X270830Y193850D01*
X270899Y193877D01*
X270983Y193919D01*
X271052Y193974D01*
X271149Y194044D01*
X271233Y194141D01*
X271302Y194266D01*
X271385Y194419D01*
X271455Y194585D01*
X271510Y194793D01*
X271552Y195043D01*
X271580Y195321D01*
X271593Y195640D01*
Y195668D01*
Y195723D01*
Y195820D01*
X271580Y195931D01*
X271566Y196084D01*
X271552Y196237D01*
X271482Y196584D01*
X271371Y196931D01*
X271302Y197083D01*
X271219Y197236D01*
X271108Y197347D01*
X270983Y197444D01*
X270844Y197514D01*
X270691Y197528D01*
D02*
G37*
G36*
X247872D02*
X246721D01*
X246623Y197514D01*
X246498Y197472D01*
X246374Y197403D01*
X246346Y197375D01*
X246276Y197319D01*
X246193Y197208D01*
X246096Y197070D01*
Y197056D01*
X246082Y197028D01*
X246054Y196986D01*
X246026Y196931D01*
X245971Y196778D01*
X245915Y196584D01*
Y196570D01*
X245902Y196542D01*
Y196487D01*
X245888Y196417D01*
X245874Y196334D01*
Y196237D01*
X245860Y196015D01*
Y191434D01*
Y191420D01*
Y191379D01*
Y191323D01*
X245874Y191254D01*
X245888Y191074D01*
X245915Y190865D01*
Y190851D01*
X245929Y190824D01*
X245943Y190768D01*
X245971Y190713D01*
X246026Y190560D01*
X246096Y190393D01*
Y190380D01*
X246110Y190366D01*
X246179Y190268D01*
X246262Y190171D01*
X246374Y190060D01*
X246387D01*
X246401Y190046D01*
X246484Y190005D01*
X246596Y189949D01*
X246748Y189935D01*
X247914D01*
X247956Y189949D01*
X248011D01*
X248136Y189991D01*
X248261Y190060D01*
X248275D01*
X248289Y190088D01*
X248358Y190144D01*
X248456Y190255D01*
X248539Y190380D01*
Y190393D01*
X248553Y190421D01*
X248580Y190463D01*
X248608Y190518D01*
X248650Y190671D01*
X248705Y190851D01*
Y190865D01*
X248719Y190907D01*
X248733Y190962D01*
X248747Y191032D01*
Y191115D01*
X248761Y191212D01*
X248775Y191434D01*
Y196015D01*
Y196029D01*
Y196070D01*
Y196126D01*
X248761Y196209D01*
X248747Y196389D01*
X248705Y196598D01*
Y196612D01*
X248691Y196639D01*
X248678Y196695D01*
X248664Y196764D01*
X248608Y196917D01*
X248525Y197083D01*
Y197097D01*
X248511Y197125D01*
X248456Y197208D01*
X248358Y197306D01*
X248247Y197403D01*
X248233D01*
X248219Y197417D01*
X248136Y197472D01*
X248025Y197514D01*
X247872Y197528D01*
D02*
G37*
%LPD*%
D19*
X86720Y91235D02*
D03*
Y77735D02*
D03*
D20*
X124526Y108400D02*
D03*
X136474D02*
D03*
X193574Y56500D02*
D03*
X181626D02*
D03*
D21*
X134068Y88661D02*
D03*
X134069Y91220D02*
D03*
Y93779D02*
D03*
X134068Y96339D02*
D03*
X124532Y88661D02*
D03*
X124532Y91220D02*
D03*
Y93779D02*
D03*
X124532Y96339D02*
D03*
D22*
X124445Y122500D02*
D03*
X142555D02*
D03*
D23*
X86600Y115301D02*
D03*
Y127899D02*
D03*
D24*
X98000Y80585D02*
D03*
X98000Y91215D02*
D03*
D25*
X98000Y125204D02*
D03*
Y117596D02*
D03*
D26*
X126556Y73400D02*
D03*
X121045D02*
D03*
D27*
X135200Y66061D02*
D03*
Y79339D02*
D03*
D28*
X86626Y104400D02*
D03*
X97974D02*
D03*
X159226Y56500D02*
D03*
X170574Y56500D02*
D03*
D29*
X113365Y80600D02*
D03*
X107434D02*
D03*
X126766D02*
D03*
X120835D02*
D03*
D30*
X167319Y120900D02*
D03*
X167319Y102900D02*
D03*
X157019Y87800D02*
D03*
X157019Y69800D02*
D03*
D31*
X194681Y111900D02*
D03*
X184381Y78800D02*
D03*
D32*
X86800Y35221D02*
D03*
Y11904D02*
D03*
D33*
X71200Y29537D02*
D03*
X71200Y17588D02*
D03*
X216400Y136626D02*
D03*
X216400Y148574D02*
D03*
X201800Y136626D02*
D03*
X201800Y148574D02*
D03*
X187200Y136626D02*
D03*
X187200Y148574D02*
D03*
D34*
X99124Y188900D02*
D03*
X72076D02*
D03*
X99124Y163100D02*
D03*
X72076D02*
D03*
D35*
X86720Y77735D02*
X86870D01*
X67529Y83100D02*
X67529D01*
X157000Y131800D02*
X161826Y136626D01*
X114104Y125204D02*
X120700Y131800D01*
X157000D01*
X161826Y136626D02*
X187200D01*
X98000Y125204D02*
X114104D01*
X138493Y110600D02*
X143800D01*
X161600Y128400D02*
X174300D01*
X143800Y110600D02*
X161600Y128400D01*
X142500Y115499D02*
Y122445D01*
X142555Y122500D01*
X174300Y128400D02*
X176900Y125800D01*
Y115200D02*
Y125800D01*
X171040Y109340D02*
X176900Y115200D01*
X171040Y104062D02*
Y109340D01*
X169878Y102900D02*
X171040Y104062D01*
X97987Y117583D02*
X98000Y117596D01*
X97987Y104413D02*
Y117583D01*
X97974Y104400D02*
X97987Y104413D01*
X130500Y64700D02*
X133849D01*
X110209D02*
X130500D01*
X86650Y104400D02*
Y115251D01*
Y91305D02*
Y104400D01*
X98004Y91212D02*
X117912D01*
X97980Y91235D02*
X98004Y91212D01*
X117100Y80600D02*
X120835D01*
X113365D02*
X117100D01*
X126661Y80495D02*
X126766Y80600D01*
X126661Y73505D02*
Y80495D01*
X126556Y73400D02*
X126661Y73505D01*
X120835Y80600D02*
X120940Y80495D01*
Y73505D02*
Y80495D01*
Y73505D02*
X121045Y73400D01*
X86700Y91255D02*
X86720Y91235D01*
X97980D01*
X86600Y115301D02*
X86650Y115251D01*
Y91305D02*
X86700Y91255D01*
X126412Y69906D02*
Y73256D01*
X112500Y68500D02*
X125006D01*
X135200Y66051D02*
Y66061D01*
X126412Y73256D02*
X126556Y73400D01*
X133849Y64700D02*
X135200Y66051D01*
X107434Y67474D02*
Y80600D01*
Y67474D02*
X110209Y64700D01*
X125006Y68500D02*
X126412Y69906D01*
X107427Y80592D02*
X107434Y80600D01*
X98008Y80592D02*
X107427D01*
X98000Y80585D02*
X98008Y80592D01*
X136474Y108400D02*
Y108581D01*
X138493Y110600D01*
X167319Y102900D02*
X169878D01*
X86068Y127899D02*
X86600D01*
D36*
X68365Y77735D02*
X86720D01*
X68100Y78000D02*
X68365Y77735D01*
X89719Y80585D02*
X98000D01*
X86870Y77735D02*
X89719Y80585D01*
D63*
X134068Y86732D02*
Y88661D01*
Y86732D02*
X136400Y84400D01*
X124526Y108400D02*
X124532Y108394D01*
Y96339D02*
Y108394D01*
X129400Y83799D02*
X130500Y82699D01*
X129400Y83799D02*
Y92154D01*
X131046Y93800D02*
X134048D01*
X129400Y92154D02*
X131046Y93800D01*
X130500Y64700D02*
Y82699D01*
X134048Y93800D02*
X134069Y93779D01*
X117100Y85600D02*
X120116Y88616D01*
X124488D01*
X117100Y80600D02*
Y85600D01*
X124529Y91216D02*
X124532Y91220D01*
X117912Y91212D02*
X117916Y91216D01*
X124529D01*
X124488Y88616D02*
X124532Y88661D01*
D64*
X175500Y56500D02*
D03*
D65*
X129947Y149453D02*
D03*
D66*
X198600Y13720D02*
D03*
Y33405D02*
D03*
X116300Y13720D02*
D03*
Y33405D02*
D03*
X157450Y13720D02*
D03*
Y33405D02*
D03*
X128600Y186200D02*
D03*
Y166200D02*
D03*
X169800Y186200D02*
D03*
Y166200D02*
D03*
X211000Y186200D02*
D03*
X211000Y166200D02*
D03*
D67*
X233326Y30126D02*
D03*
X258381Y55181D02*
D03*
D68*
X322000Y15000D02*
D03*
Y193900D02*
D03*
D69*
X21015Y13457D02*
D03*
Y33142D02*
D03*
X40700D02*
D03*
Y13457D02*
D03*
Y170664D02*
D03*
Y190349D02*
D03*
X21015D02*
D03*
Y170664D02*
D03*
X40700Y121615D02*
D03*
Y141300D02*
D03*
X21015D02*
D03*
Y121615D02*
D03*
X40700Y62557D02*
D03*
Y82242D02*
D03*
X21015D02*
D03*
Y62557D02*
D03*
D70*
X145000Y33500D02*
D03*
X169000D02*
D03*
X185595Y33405D02*
D03*
X79000Y38000D02*
D03*
X191000Y33500D02*
D03*
X164000D02*
D03*
X150500D02*
D03*
X109000D02*
D03*
X129000D02*
D03*
X123500Y33405D02*
D03*
X158000Y86500D02*
D03*
X148000Y66000D02*
D03*
X143000D02*
D03*
X148000Y71000D02*
D03*
X143000D02*
D03*
X147000Y75000D02*
D03*
X152000D02*
D03*
X157500D02*
D03*
X207000Y90000D02*
D03*
X212000D02*
D03*
Y85500D02*
D03*
Y81000D02*
D03*
Y76500D02*
D03*
X194000Y102500D02*
D03*
X189500D02*
D03*
X194000Y107000D02*
D03*
X189500D02*
D03*
X194000Y112000D02*
D03*
X189500D02*
D03*
X194000Y116500D02*
D03*
X189500D02*
D03*
X184500Y107000D02*
D03*
Y116500D02*
D03*
Y112000D02*
D03*
Y102500D02*
D03*
X189500Y121000D02*
D03*
X194000D02*
D03*
X184500D02*
D03*
X163500Y119000D02*
D03*
X180500Y70000D02*
D03*
X194000Y88000D02*
D03*
Y82000D02*
D03*
X174000Y76000D02*
D03*
Y70000D02*
D03*
X187500D02*
D03*
X180500Y88000D02*
D03*
Y76000D02*
D03*
X174000Y88000D02*
D03*
X187500Y76000D02*
D03*
X180500Y82000D02*
D03*
X194000Y70000D02*
D03*
X187500Y88000D02*
D03*
X194000Y76000D02*
D03*
X174000Y82000D02*
D03*
X187500D02*
D03*
X159100Y102100D02*
D03*
Y97200D02*
D03*
X165000Y97500D02*
D03*
X177500Y94000D02*
D03*
X173000D02*
D03*
X168500D02*
D03*
D71*
X235000Y16000D02*
D03*
Y10000D02*
D03*
X56000Y34500D02*
D03*
Y41500D02*
D03*
X16000Y77000D02*
D03*
X46500D02*
D03*
X30500D02*
D03*
X16000Y88500D02*
D03*
X36000D02*
D03*
X56000D02*
D03*
Y77000D02*
D03*
Y48500D02*
D03*
Y55500D02*
D03*
Y69500D02*
D03*
Y62500D02*
D03*
X7000Y76500D02*
D03*
Y95000D02*
D03*
Y88833D02*
D03*
Y82667D02*
D03*
X170500Y144500D02*
D03*
X176400D02*
D03*
Y150300D02*
D03*
X170700D02*
D03*
X7000Y61350D02*
D03*
Y6000D02*
D03*
Y67500D02*
D03*
Y55200D02*
D03*
Y49050D02*
D03*
Y12150D02*
D03*
Y18300D02*
D03*
Y24450D02*
D03*
Y30600D02*
D03*
Y36750D02*
D03*
Y42900D02*
D03*
X31000Y67500D02*
D03*
Y61000D02*
D03*
Y55000D02*
D03*
X80500Y19500D02*
D03*
X79500Y6000D02*
D03*
X73000D02*
D03*
X67000D02*
D03*
X227000Y18500D02*
D03*
Y12000D02*
D03*
Y6000D02*
D03*
X219500Y18500D02*
D03*
Y12000D02*
D03*
Y6000D02*
D03*
X220339Y33839D02*
D03*
X215743Y29243D02*
D03*
X211500Y25000D02*
D03*
Y18500D02*
D03*
Y12000D02*
D03*
Y6000D02*
D03*
X144500Y18500D02*
D03*
Y12000D02*
D03*
Y6000D02*
D03*
X137000Y18500D02*
D03*
Y12000D02*
D03*
Y6000D02*
D03*
X129500Y18500D02*
D03*
Y12000D02*
D03*
Y6000D02*
D03*
X185500Y18500D02*
D03*
Y12000D02*
D03*
Y6000D02*
D03*
X178000Y18500D02*
D03*
Y12000D02*
D03*
Y6000D02*
D03*
X170000Y18500D02*
D03*
Y12000D02*
D03*
Y6000D02*
D03*
X104500Y18500D02*
D03*
Y12000D02*
D03*
Y6000D02*
D03*
X98500Y18500D02*
D03*
Y12000D02*
D03*
Y6000D02*
D03*
X30500Y18500D02*
D03*
Y12000D02*
D03*
Y6000D02*
D03*
X48500Y18500D02*
D03*
Y12000D02*
D03*
Y6000D02*
D03*
X54500Y18500D02*
D03*
Y12000D02*
D03*
Y6000D02*
D03*
X60500D02*
D03*
Y12000D02*
D03*
Y18500D02*
D03*
D72*
X142500Y115499D02*
D03*
X136400Y84400D02*
D03*
X112500Y68500D02*
D03*
M02*
