G04*
G04 #@! TF.GenerationSoftware,Altium Limited,Altium Designer,20.2.8 (258)*
G04*
G04 Layer_Color=128*
%FSLAX25Y25*%
%MOIN*%
G70*
G04*
G04 #@! TF.SameCoordinates,527F6DBC-4CBC-4D53-8A28-EBD6D6C4F68D*
G04*
G04*
G04 #@! TF.FilePolarity,Positive*
G04*
G01*
G75*
%ADD15C,0.00200*%
D15*
X251994Y21500D02*
X263806D01*
X257900Y15595D02*
Y27406D01*
X124042Y149453D02*
X135853D01*
X129947Y143547D02*
Y155358D01*
X196632Y13720D02*
X200569D01*
X198600Y11751D02*
Y15688D01*
X196632Y33405D02*
X200569D01*
X198600Y31436D02*
Y35373D01*
X227420Y30126D02*
X239231D01*
X233326Y24220D02*
Y36031D01*
X252475Y55181D02*
X264286D01*
X258381Y49275D02*
Y61086D01*
X315110Y15000D02*
X328890D01*
X322000Y8110D02*
Y21890D01*
X315110Y193900D02*
X328890D01*
X322000Y187010D02*
Y200790D01*
X18062Y13457D02*
X23968D01*
X21015Y10504D02*
Y16410D01*
X18062Y33142D02*
X23968D01*
X21015Y30189D02*
Y36095D01*
X37747Y33142D02*
X43653D01*
X40700Y30189D02*
Y36095D01*
X37747Y13457D02*
X43653D01*
X40700Y10504D02*
Y16410D01*
X114331Y13720D02*
X118269D01*
X116300Y11751D02*
Y15688D01*
X114331Y33405D02*
X118269D01*
X116300Y31436D02*
Y35373D01*
X155482Y13720D02*
X159418D01*
X157450Y11751D02*
Y15688D01*
X155482Y33405D02*
X159418D01*
X157450Y31436D02*
Y35373D01*
X37747Y170664D02*
X43653D01*
X40700Y167712D02*
Y173617D01*
X37747Y190349D02*
X43653D01*
X40700Y187397D02*
Y193302D01*
X18062Y190349D02*
X23968D01*
X21015Y187397D02*
Y193302D01*
X18062Y170664D02*
X23968D01*
X21015Y167712D02*
Y173617D01*
X126631Y186200D02*
X130569D01*
X128600Y184231D02*
Y188169D01*
X126631Y166200D02*
X130569D01*
X128600Y164232D02*
Y168168D01*
X167832Y186200D02*
X171768D01*
X169800Y184231D02*
Y188169D01*
X167832Y166200D02*
X171768D01*
X169800Y164232D02*
Y168168D01*
X209032Y186200D02*
X212968D01*
X211000Y184231D02*
Y188169D01*
X209032Y166200D02*
X212968D01*
X211000Y164232D02*
Y168168D01*
X37747Y121615D02*
X43653D01*
X40700Y118662D02*
Y124568D01*
X37747Y141300D02*
X43653D01*
X40700Y138347D02*
Y144253D01*
X18062Y141300D02*
X23968D01*
X21015Y138347D02*
Y144253D01*
X18062Y121615D02*
X23968D01*
X21015Y118662D02*
Y124568D01*
X37747Y62557D02*
X43653D01*
X40700Y59605D02*
Y65510D01*
X37747Y82242D02*
X43653D01*
X40700Y79290D02*
Y85195D01*
X18062Y82242D02*
X23968D01*
X21015Y79290D02*
Y85195D01*
X18062Y62557D02*
X23968D01*
X21015Y59605D02*
Y65510D01*
X143800Y33500D02*
X146200D01*
X145000Y32300D02*
Y34700D01*
X167800Y33500D02*
X170200D01*
X169000Y32300D02*
Y34700D01*
X184395Y33405D02*
X186795D01*
X185595Y32205D02*
Y34605D01*
X77800Y38000D02*
X80200D01*
X79000Y36800D02*
Y39200D01*
X189800Y33500D02*
X192200D01*
X191000Y32300D02*
Y34700D01*
X162800Y33500D02*
X165200D01*
X164000Y32300D02*
Y34700D01*
X149300Y33500D02*
X151700D01*
X150500Y32300D02*
Y34700D01*
X107800Y33500D02*
X110200D01*
X109000Y32300D02*
Y34700D01*
X127800Y33500D02*
X130200D01*
X129000Y32300D02*
Y34700D01*
X122300Y33405D02*
X124700D01*
X123500Y32205D02*
Y34605D01*
X156800Y86500D02*
X159200D01*
X158000Y85300D02*
Y87700D01*
X146800Y66000D02*
X149200D01*
X148000Y64800D02*
Y67200D01*
X141800Y66000D02*
X144200D01*
X143000Y64800D02*
Y67200D01*
X146800Y71000D02*
X149200D01*
X148000Y69800D02*
Y72200D01*
X141800Y71000D02*
X144200D01*
X143000Y69800D02*
Y72200D01*
X145800Y75000D02*
X148200D01*
X147000Y73800D02*
Y76200D01*
X150800Y75000D02*
X153200D01*
X152000Y73800D02*
Y76200D01*
X156300Y75000D02*
X158700D01*
X157500Y73800D02*
Y76200D01*
X205800Y90000D02*
X208200D01*
X207000Y88800D02*
Y91200D01*
X210800Y90000D02*
X213200D01*
X212000Y88800D02*
Y91200D01*
X210800Y85500D02*
X213200D01*
X212000Y84300D02*
Y86700D01*
X210800Y81000D02*
X213200D01*
X212000Y79800D02*
Y82200D01*
X210800Y76500D02*
X213200D01*
X212000Y75300D02*
Y77700D01*
X192800Y102500D02*
X195200D01*
X194000Y101300D02*
Y103700D01*
X188300Y102500D02*
X190700D01*
X189500Y101300D02*
Y103700D01*
X192800Y107000D02*
X195200D01*
X194000Y105800D02*
Y108200D01*
X188300Y107000D02*
X190700D01*
X189500Y105800D02*
Y108200D01*
X192800Y112000D02*
X195200D01*
X194000Y110800D02*
Y113200D01*
X188300Y112000D02*
X190700D01*
X189500Y110800D02*
Y113200D01*
X192800Y116500D02*
X195200D01*
X194000Y115300D02*
Y117700D01*
X188300Y116500D02*
X190700D01*
X189500Y115300D02*
Y117700D01*
X183300Y107000D02*
X185700D01*
X184500Y105800D02*
Y108200D01*
X183300Y116500D02*
X185700D01*
X184500Y115300D02*
Y117700D01*
X183300Y112000D02*
X185700D01*
X184500Y110800D02*
Y113200D01*
X183300Y102500D02*
X185700D01*
X184500Y101300D02*
Y103700D01*
X188300Y121000D02*
X190700D01*
X189500Y119800D02*
Y122200D01*
X192800Y121000D02*
X195200D01*
X194000Y119800D02*
Y122200D01*
X183300Y121000D02*
X185700D01*
X184500Y119800D02*
Y122200D01*
X162300Y119000D02*
X164700D01*
X163500Y117800D02*
Y120200D01*
X179300Y70000D02*
X181700D01*
X180500Y68800D02*
Y71200D01*
X192800Y88000D02*
X195200D01*
X194000Y86800D02*
Y89200D01*
X192800Y82000D02*
X195200D01*
X194000Y80800D02*
Y83200D01*
X172800Y76000D02*
X175200D01*
X174000Y74800D02*
Y77200D01*
X172800Y70000D02*
X175200D01*
X174000Y68800D02*
Y71200D01*
X186300Y70000D02*
X188700D01*
X187500Y68800D02*
Y71200D01*
X179300Y88000D02*
X181700D01*
X180500Y86800D02*
Y89200D01*
X179300Y76000D02*
X181700D01*
X180500Y74800D02*
Y77200D01*
X172800Y88000D02*
X175200D01*
X174000Y86800D02*
Y89200D01*
X186300Y76000D02*
X188700D01*
X187500Y74800D02*
Y77200D01*
X179300Y82000D02*
X181700D01*
X180500Y80800D02*
Y83200D01*
X192800Y70000D02*
X195200D01*
X194000Y68800D02*
Y71200D01*
X186300Y88000D02*
X188700D01*
X187500Y86800D02*
Y89200D01*
X192800Y76000D02*
X195200D01*
X194000Y74800D02*
Y77200D01*
X172800Y82000D02*
X175200D01*
X174000Y80800D02*
Y83200D01*
X186300Y82000D02*
X188700D01*
X187500Y80800D02*
Y83200D01*
X233600Y16000D02*
X236400D01*
X235000Y14600D02*
Y17400D01*
X233600Y10000D02*
X236400D01*
X235000Y8600D02*
Y11400D01*
X157900Y102100D02*
X160300D01*
X159100Y100900D02*
Y103300D01*
X157900Y97200D02*
X160300D01*
X159100Y96000D02*
Y98400D01*
X141900Y115499D02*
X143100D01*
X142500Y114899D02*
Y116099D01*
X135800Y84400D02*
X137000D01*
X136400Y83800D02*
Y85000D01*
X111900Y68500D02*
X113100D01*
X112500Y67900D02*
Y69100D01*
X54600Y34500D02*
X57400D01*
X56000Y33100D02*
Y35900D01*
X54600Y41500D02*
X57400D01*
X56000Y40100D02*
Y42900D01*
X14600Y77000D02*
X17400D01*
X16000Y75600D02*
Y78400D01*
X45100Y77000D02*
X47900D01*
X46500Y75600D02*
Y78400D01*
X29100Y77000D02*
X31900D01*
X30500Y75600D02*
Y78400D01*
X14600Y88500D02*
X17400D01*
X16000Y87100D02*
Y89900D01*
X34600Y88500D02*
X37400D01*
X36000Y87100D02*
Y89900D01*
X54600Y88500D02*
X57400D01*
X56000Y87100D02*
Y89900D01*
X54600Y77000D02*
X57400D01*
X56000Y75600D02*
Y78400D01*
X54600Y48500D02*
X57400D01*
X56000Y47100D02*
Y49900D01*
X54600Y55500D02*
X57400D01*
X56000Y54100D02*
Y56900D01*
X54600Y69500D02*
X57400D01*
X56000Y68100D02*
Y70900D01*
X54600Y62500D02*
X57400D01*
X56000Y61100D02*
Y63900D01*
X5600Y76500D02*
X8400D01*
X7000Y75100D02*
Y77900D01*
X5600Y95000D02*
X8400D01*
X7000Y93600D02*
Y96400D01*
X5600Y88833D02*
X8400D01*
X7000Y87433D02*
Y90233D01*
X5600Y82667D02*
X8400D01*
X7000Y81267D02*
Y84067D01*
X169100Y144500D02*
X171900D01*
X170500Y143100D02*
Y145900D01*
X175000Y144500D02*
X177800D01*
X176400Y143100D02*
Y145900D01*
X175000Y150300D02*
X177800D01*
X176400Y148900D02*
Y151700D01*
X169300Y150300D02*
X172100D01*
X170700Y148900D02*
Y151700D01*
X5600Y61350D02*
X8400D01*
X7000Y59950D02*
Y62750D01*
X5600Y6000D02*
X8400D01*
X7000Y4600D02*
Y7400D01*
X5600Y67500D02*
X8400D01*
X7000Y66100D02*
Y68900D01*
X5600Y55200D02*
X8400D01*
X7000Y53800D02*
Y56600D01*
X5600Y49050D02*
X8400D01*
X7000Y47650D02*
Y50450D01*
X5600Y12150D02*
X8400D01*
X7000Y10750D02*
Y13550D01*
X5600Y18300D02*
X8400D01*
X7000Y16900D02*
Y19700D01*
X5600Y24450D02*
X8400D01*
X7000Y23050D02*
Y25850D01*
X5600Y30600D02*
X8400D01*
X7000Y29200D02*
Y32000D01*
X5600Y36750D02*
X8400D01*
X7000Y35350D02*
Y38150D01*
X5600Y42900D02*
X8400D01*
X7000Y41500D02*
Y44300D01*
X163800Y97500D02*
X166200D01*
X165000Y96300D02*
Y98700D01*
X176300Y94000D02*
X178700D01*
X177500Y92800D02*
Y95200D01*
X171800Y94000D02*
X174200D01*
X173000Y92800D02*
Y95200D01*
X167300Y94000D02*
X169700D01*
X168500Y92800D02*
Y95200D01*
X29600Y67500D02*
X32400D01*
X31000Y66100D02*
Y68900D01*
X29600Y61000D02*
X32400D01*
X31000Y59600D02*
Y62400D01*
X29600Y55000D02*
X32400D01*
X31000Y53600D02*
Y56400D01*
X79100Y19500D02*
X81900D01*
X80500Y18100D02*
Y20900D01*
X78100Y6000D02*
X80900D01*
X79500Y4600D02*
Y7400D01*
X71600Y6000D02*
X74400D01*
X73000Y4600D02*
Y7400D01*
X65600Y6000D02*
X68400D01*
X67000Y4600D02*
Y7400D01*
X225600Y18500D02*
X228400D01*
X227000Y17100D02*
Y19900D01*
X225600Y12000D02*
X228400D01*
X227000Y10600D02*
Y13400D01*
X225600Y6000D02*
X228400D01*
X227000Y4600D02*
Y7400D01*
X218100Y18500D02*
X220900D01*
X219500Y17100D02*
Y19900D01*
X218100Y12000D02*
X220900D01*
X219500Y10600D02*
Y13400D01*
X218100Y6000D02*
X220900D01*
X219500Y4600D02*
Y7400D01*
X218939Y33839D02*
X221739D01*
X220339Y32439D02*
Y35239D01*
X214343Y29243D02*
X217143D01*
X215743Y27843D02*
Y30643D01*
X210100Y25000D02*
X212900D01*
X211500Y23600D02*
Y26400D01*
X210100Y18500D02*
X212900D01*
X211500Y17100D02*
Y19900D01*
X210100Y12000D02*
X212900D01*
X211500Y10600D02*
Y13400D01*
X210100Y6000D02*
X212900D01*
X211500Y4600D02*
Y7400D01*
X143100Y18500D02*
X145900D01*
X144500Y17100D02*
Y19900D01*
X143100Y12000D02*
X145900D01*
X144500Y10600D02*
Y13400D01*
X143100Y6000D02*
X145900D01*
X144500Y4600D02*
Y7400D01*
X135600Y18500D02*
X138400D01*
X137000Y17100D02*
Y19900D01*
X135600Y12000D02*
X138400D01*
X137000Y10600D02*
Y13400D01*
X135600Y6000D02*
X138400D01*
X137000Y4600D02*
Y7400D01*
X128100Y18500D02*
X130900D01*
X129500Y17100D02*
Y19900D01*
X128100Y12000D02*
X130900D01*
X129500Y10600D02*
Y13400D01*
X128100Y6000D02*
X130900D01*
X129500Y4600D02*
Y7400D01*
X184100Y18500D02*
X186900D01*
X185500Y17100D02*
Y19900D01*
X184100Y12000D02*
X186900D01*
X185500Y10600D02*
Y13400D01*
X184100Y6000D02*
X186900D01*
X185500Y4600D02*
Y7400D01*
X176600Y18500D02*
X179400D01*
X178000Y17100D02*
Y19900D01*
X176600Y12000D02*
X179400D01*
X178000Y10600D02*
Y13400D01*
X176600Y6000D02*
X179400D01*
X178000Y4600D02*
Y7400D01*
X168600Y18500D02*
X171400D01*
X170000Y17100D02*
Y19900D01*
X168600Y12000D02*
X171400D01*
X170000Y10600D02*
Y13400D01*
X168600Y6000D02*
X171400D01*
X170000Y4600D02*
Y7400D01*
X103100Y18500D02*
X105900D01*
X104500Y17100D02*
Y19900D01*
X103100Y12000D02*
X105900D01*
X104500Y10600D02*
Y13400D01*
X103100Y6000D02*
X105900D01*
X104500Y4600D02*
Y7400D01*
X97100Y18500D02*
X99900D01*
X98500Y17100D02*
Y19900D01*
X97100Y12000D02*
X99900D01*
X98500Y10600D02*
Y13400D01*
X97100Y6000D02*
X99900D01*
X98500Y4600D02*
Y7400D01*
X29100Y18500D02*
X31900D01*
X30500Y17100D02*
Y19900D01*
X29100Y12000D02*
X31900D01*
X30500Y10600D02*
Y13400D01*
X29100Y6000D02*
X31900D01*
X30500Y4600D02*
Y7400D01*
X47100Y18500D02*
X49900D01*
X48500Y17100D02*
Y19900D01*
X47100Y12000D02*
X49900D01*
X48500Y10600D02*
Y13400D01*
X47100Y6000D02*
X49900D01*
X48500Y4600D02*
Y7400D01*
X53100Y18500D02*
X55900D01*
X54500Y17100D02*
Y19900D01*
X53100Y12000D02*
X55900D01*
X54500Y10600D02*
Y13400D01*
X53100Y6000D02*
X55900D01*
X54500Y4600D02*
Y7400D01*
X59100Y6000D02*
X61900D01*
X60500Y4600D02*
Y7400D01*
X59100Y12000D02*
X61900D01*
X60500Y10600D02*
Y13400D01*
X59100Y18500D02*
X61900D01*
X60500Y17100D02*
Y19900D01*
M02*
