G04*
G04 #@! TF.GenerationSoftware,Altium Limited,Altium Designer,20.2.8 (258)*
G04*
G04 Layer_Physical_Order=2*
G04 Layer_Color=16711680*
%FSLAX25Y25*%
%MOIN*%
G70*
G04*
G04 #@! TF.SameCoordinates,527F6DBC-4CBC-4D53-8A28-EBD6D6C4F68D*
G04*
G04*
G04 #@! TF.FilePolarity,Positive*
G04*
G01*
G75*
%ADD12C,0.00600*%
%ADD21O,0.04811X0.01433*%
%ADD30R,0.09843X0.04724*%
%ADD31R,0.25591X0.23622*%
%ADD35C,0.02400*%
%ADD37C,0.05000*%
%ADD65C,0.13780*%
%ADD66C,0.06299*%
%ADD67C,0.19685*%
%ADD68C,0.19685*%
%ADD69C,0.09055*%
%ADD70C,0.03600*%
%ADD71C,0.05000*%
%ADD72C,0.02400*%
%ADD73R,0.05000X0.05000*%
%ADD74R,0.09500X0.13500*%
G36*
X60000Y177500D02*
X16000D01*
X14000Y175500D01*
Y166000D01*
X16000Y164000D01*
X60000D01*
Y128500D01*
X17500D01*
X14000Y125000D01*
Y110500D01*
X2000D01*
Y206000D01*
X60000D01*
Y177500D01*
D02*
G37*
G36*
X216500Y73500D02*
X221500Y68500D01*
X262500Y68500D01*
X270500Y60500D01*
Y50000D01*
X265000Y44500D01*
X252000D01*
X242500Y44500D01*
X240000Y47000D01*
X191000Y47000D01*
X169000Y69000D01*
X169000Y81053D01*
X156000Y94054D01*
X156000Y99150D01*
X156000Y102500D01*
X158000Y104500D01*
X161500Y104500D01*
X166998D01*
X168598Y102900D01*
X168598Y99402D01*
X170500Y97500D01*
X198500D01*
X207000Y106000D01*
X216500D01*
X216500Y73500D01*
D02*
G37*
G36*
X60000Y32500D02*
X54500Y27000D01*
X18500Y27000D01*
X15000Y30500D01*
Y48500D01*
X47000Y48500D01*
X52000Y53500D01*
Y70000D01*
X48500Y73500D01*
X2000D01*
Y98000D01*
X60000D01*
Y32500D01*
D02*
G37*
G36*
X247000Y206000D02*
Y136500D01*
X242000Y131500D01*
X168000D01*
X155000Y118500D01*
X155000Y104384D01*
X154558Y103942D01*
X154558Y103942D01*
X154116Y103280D01*
X153961Y102500D01*
X153961Y99150D01*
X153961Y94054D01*
X154116Y93273D01*
X154558Y92612D01*
X154558Y92612D01*
X155000Y92170D01*
Y86697D01*
X154974Y86500D01*
X155000Y86303D01*
Y85000D01*
X163053Y76947D01*
Y64636D01*
X160530Y62112D01*
X150148D01*
Y53388D01*
X163990D01*
Y58652D01*
X167230Y61892D01*
X167761Y62686D01*
X167947Y63622D01*
Y66516D01*
X168409Y66707D01*
X169636Y65480D01*
Y52939D01*
X182177D01*
X189558Y45558D01*
X190220Y45116D01*
X191000Y44961D01*
X210039D01*
X212500Y42461D01*
Y35000D01*
X204500Y27000D01*
X64000D01*
Y27539D01*
X102514Y66053D01*
X112500D01*
X113436Y66239D01*
X114230Y66770D01*
X114761Y67564D01*
X114947Y68500D01*
X114761Y69436D01*
X114230Y70230D01*
X113436Y70761D01*
X112500Y70947D01*
X101500D01*
X100564Y70761D01*
X99770Y70230D01*
X64462Y34923D01*
X64000Y35114D01*
X64000Y117939D01*
X64537Y118010D01*
X65437Y118383D01*
X66210Y118976D01*
X69139Y121905D01*
X69732Y122678D01*
X70105Y123578D01*
X70232Y124544D01*
Y161725D01*
X70975Y162468D01*
X128600D01*
X129566Y162595D01*
X130466Y162968D01*
X131239Y163561D01*
X131832Y164334D01*
X132205Y165234D01*
X132332Y166200D01*
X132205Y167166D01*
X131832Y168066D01*
X131239Y168839D01*
X130466Y169432D01*
X130173Y169553D01*
X126423Y173303D01*
X125650Y173896D01*
X124750Y174269D01*
X123784Y174396D01*
X64000D01*
Y206000D01*
X247000Y206000D01*
D02*
G37*
G36*
X49500Y68500D02*
Y54500D01*
X46500Y51500D01*
X12500D01*
X12500Y28500D01*
X16500Y24500D01*
X205000Y24500D01*
X216500Y36000D01*
X221500Y41000D01*
X238000Y41000D01*
X246500Y32500D01*
X246500Y5000D01*
X244000Y2500D01*
X2000Y2500D01*
Y71000D01*
X47000D01*
X49500Y68500D01*
D02*
G37*
%LPC*%
G36*
X211000Y191394D02*
X209656Y191217D01*
X208403Y190698D01*
X207327Y189873D01*
X206502Y188797D01*
X205983Y187544D01*
X205806Y186200D01*
X205983Y184856D01*
X206502Y183603D01*
X207327Y182527D01*
X208403Y181702D01*
X209656Y181183D01*
X211000Y181006D01*
X212344Y181183D01*
X213597Y181702D01*
X214673Y182527D01*
X215498Y183603D01*
X216017Y184856D01*
X216194Y186200D01*
X216017Y187544D01*
X215498Y188797D01*
X214673Y189873D01*
X213597Y190698D01*
X212344Y191217D01*
X211000Y191394D01*
D02*
G37*
G36*
X169800D02*
X168456Y191217D01*
X167203Y190698D01*
X166127Y189873D01*
X165302Y188797D01*
X164783Y187544D01*
X164606Y186200D01*
X164783Y184856D01*
X165302Y183603D01*
X166127Y182527D01*
X167203Y181702D01*
X168456Y181183D01*
X169800Y181006D01*
X171144Y181183D01*
X172397Y181702D01*
X173473Y182527D01*
X174298Y183603D01*
X174817Y184856D01*
X174994Y186200D01*
X174817Y187544D01*
X174298Y188797D01*
X173473Y189873D01*
X172397Y190698D01*
X171144Y191217D01*
X169800Y191394D01*
D02*
G37*
G36*
X128600D02*
X127256Y191217D01*
X126003Y190698D01*
X124927Y189873D01*
X124102Y188797D01*
X123583Y187544D01*
X123406Y186200D01*
X123583Y184856D01*
X124000Y183849D01*
Y177400D01*
X133000D01*
Y183475D01*
X133098Y183603D01*
X133617Y184856D01*
X133794Y186200D01*
X133617Y187544D01*
X133098Y188797D01*
X132273Y189873D01*
X131197Y190698D01*
X129944Y191217D01*
X128600Y191394D01*
D02*
G37*
G36*
X142500Y117946D02*
X141564Y117760D01*
X140770Y117230D01*
X140570Y116930D01*
X134670Y111030D01*
X134139Y110236D01*
X133953Y109300D01*
Y84400D01*
X134139Y83464D01*
X134670Y82670D01*
X135464Y82139D01*
X136400Y81953D01*
X137336Y82139D01*
X138130Y82670D01*
X138661Y83464D01*
X138847Y84400D01*
Y108286D01*
X144230Y113670D01*
X144761Y114464D01*
X144947Y115400D01*
Y115499D01*
X144761Y116436D01*
X144230Y117230D01*
X143436Y117760D01*
X142500Y117946D01*
D02*
G37*
%LPD*%
D12*
X253200Y107200D02*
X327000D01*
X253200D02*
Y132000D01*
X327000Y107200D02*
Y132000D01*
X253200D02*
X327000D01*
D21*
X294768Y123539D02*
D03*
X294769Y120980D02*
D03*
X294769Y118421D02*
D03*
X294768Y115861D02*
D03*
X285232Y123539D02*
D03*
X285232Y120980D02*
D03*
Y118421D02*
D03*
X285232Y115861D02*
D03*
D30*
X157069Y75750D02*
D03*
X157069Y57750D02*
D03*
X211181Y103000D02*
D03*
X211181Y121000D02*
D03*
D31*
X184431Y66750D02*
D03*
X183819Y112000D02*
D03*
D35*
X128550Y186150D02*
X128600Y186200D01*
X128550Y181950D02*
Y186150D01*
X128500Y181900D02*
X128550Y181950D01*
X158000Y86500D02*
X165500Y79000D01*
Y63622D02*
Y79000D01*
X159628Y57750D02*
X165500Y63622D01*
X157069Y57750D02*
X159628D01*
X169500Y128000D02*
X201622D01*
X163500Y122000D02*
X169500Y128000D01*
X201622D02*
X208622Y121000D01*
X163500Y119000D02*
Y122000D01*
X208622Y121000D02*
X211181D01*
X142500Y115400D02*
Y115499D01*
X136400Y109300D02*
X142500Y115400D01*
X136400Y84400D02*
Y109300D01*
X60500Y27500D02*
X101500Y68500D01*
X112500D01*
X60500Y18500D02*
Y27500D01*
D37*
X63571Y121615D02*
X66500Y124544D01*
X69429Y166200D02*
X128600D01*
X66500Y163271D02*
X69429Y166200D01*
X40700Y121615D02*
X63571D01*
X66500Y124544D02*
Y163271D01*
X40700Y170664D02*
X123784D01*
X21015Y121615D02*
X40700D01*
X123784Y170664D02*
X128248Y166200D01*
X21015Y170664D02*
X40700D01*
D65*
X129947Y149453D02*
D03*
D66*
X198600Y13720D02*
D03*
Y33405D02*
D03*
X116300Y13720D02*
D03*
Y33405D02*
D03*
X157450Y13720D02*
D03*
Y33405D02*
D03*
X128600Y186200D02*
D03*
Y166200D02*
D03*
X169800Y186200D02*
D03*
Y166200D02*
D03*
X211000Y186200D02*
D03*
X211000Y166200D02*
D03*
D67*
X233326Y30126D02*
D03*
X258381Y55181D02*
D03*
D68*
X322000Y15000D02*
D03*
Y193900D02*
D03*
D69*
X21015Y13457D02*
D03*
Y33142D02*
D03*
X40700D02*
D03*
Y13457D02*
D03*
Y170664D02*
D03*
Y190349D02*
D03*
X21015D02*
D03*
Y170664D02*
D03*
X40700Y121615D02*
D03*
Y141300D02*
D03*
X21015D02*
D03*
Y121615D02*
D03*
X40700Y62557D02*
D03*
Y82242D02*
D03*
X21015D02*
D03*
Y62557D02*
D03*
D70*
X145000Y33500D02*
D03*
X169000D02*
D03*
X185595Y33405D02*
D03*
X79000Y38000D02*
D03*
X191000Y33500D02*
D03*
X164000D02*
D03*
X150500D02*
D03*
X109000D02*
D03*
X129000D02*
D03*
X123500Y33405D02*
D03*
X158000Y86500D02*
D03*
X148000Y66000D02*
D03*
X143000D02*
D03*
X148000Y71000D02*
D03*
X143000D02*
D03*
X147000Y75000D02*
D03*
X152000D02*
D03*
X157500D02*
D03*
X207000Y90000D02*
D03*
X212000D02*
D03*
Y85500D02*
D03*
Y81000D02*
D03*
Y76500D02*
D03*
X194000Y102500D02*
D03*
X189500D02*
D03*
X194000Y107000D02*
D03*
X189500D02*
D03*
X194000Y112000D02*
D03*
X189500D02*
D03*
X194000Y116500D02*
D03*
X189500D02*
D03*
X184500Y107000D02*
D03*
Y116500D02*
D03*
Y112000D02*
D03*
Y102500D02*
D03*
X189500Y121000D02*
D03*
X194000D02*
D03*
X184500D02*
D03*
X163500Y119000D02*
D03*
X180500Y70000D02*
D03*
X194000Y88000D02*
D03*
Y82000D02*
D03*
X174000Y76000D02*
D03*
Y70000D02*
D03*
X187500D02*
D03*
X180500Y88000D02*
D03*
Y76000D02*
D03*
X174000Y88000D02*
D03*
X187500Y76000D02*
D03*
X180500Y82000D02*
D03*
X194000Y70000D02*
D03*
X187500Y88000D02*
D03*
X194000Y76000D02*
D03*
X174000Y82000D02*
D03*
X187500D02*
D03*
X159100Y102100D02*
D03*
Y97200D02*
D03*
X165000Y97500D02*
D03*
X177500Y94000D02*
D03*
X173000D02*
D03*
X168500D02*
D03*
D71*
X235000Y16000D02*
D03*
Y10000D02*
D03*
X56000Y34500D02*
D03*
Y41500D02*
D03*
X16000Y77000D02*
D03*
X46500D02*
D03*
X30500D02*
D03*
X16000Y88500D02*
D03*
X36000D02*
D03*
X56000D02*
D03*
Y77000D02*
D03*
Y48500D02*
D03*
Y55500D02*
D03*
Y69500D02*
D03*
Y62500D02*
D03*
X7000Y76500D02*
D03*
Y95000D02*
D03*
Y88833D02*
D03*
Y82667D02*
D03*
X170500Y144500D02*
D03*
X176400D02*
D03*
Y150300D02*
D03*
X170700D02*
D03*
X7000Y61350D02*
D03*
Y6000D02*
D03*
Y67500D02*
D03*
Y55200D02*
D03*
Y49050D02*
D03*
Y12150D02*
D03*
Y18300D02*
D03*
Y24450D02*
D03*
Y30600D02*
D03*
Y36750D02*
D03*
Y42900D02*
D03*
X31000Y67500D02*
D03*
Y61000D02*
D03*
Y55000D02*
D03*
X80500Y19500D02*
D03*
X79500Y6000D02*
D03*
X73000D02*
D03*
X67000D02*
D03*
X227000Y18500D02*
D03*
Y12000D02*
D03*
Y6000D02*
D03*
X219500Y18500D02*
D03*
Y12000D02*
D03*
Y6000D02*
D03*
X220339Y33839D02*
D03*
X215743Y29243D02*
D03*
X211500Y25000D02*
D03*
Y18500D02*
D03*
Y12000D02*
D03*
Y6000D02*
D03*
X144500Y18500D02*
D03*
Y12000D02*
D03*
Y6000D02*
D03*
X137000Y18500D02*
D03*
Y12000D02*
D03*
Y6000D02*
D03*
X129500Y18500D02*
D03*
Y12000D02*
D03*
Y6000D02*
D03*
X185500Y18500D02*
D03*
Y12000D02*
D03*
Y6000D02*
D03*
X178000Y18500D02*
D03*
Y12000D02*
D03*
Y6000D02*
D03*
X170000Y18500D02*
D03*
Y12000D02*
D03*
Y6000D02*
D03*
X104500Y18500D02*
D03*
Y12000D02*
D03*
Y6000D02*
D03*
X98500Y18500D02*
D03*
Y12000D02*
D03*
Y6000D02*
D03*
X30500Y18500D02*
D03*
Y12000D02*
D03*
Y6000D02*
D03*
X48500Y18500D02*
D03*
Y12000D02*
D03*
Y6000D02*
D03*
X54500Y18500D02*
D03*
Y12000D02*
D03*
Y6000D02*
D03*
X60500D02*
D03*
Y12000D02*
D03*
Y18500D02*
D03*
D72*
X142500Y115499D02*
D03*
X136400Y84400D02*
D03*
X112500Y68500D02*
D03*
D73*
X116300Y30200D02*
D03*
Y21200D02*
D03*
X128500Y172900D02*
D03*
Y181900D02*
D03*
D74*
X128250Y168750D02*
D03*
M02*
