G04*
G04 #@! TF.GenerationSoftware,Altium Limited,Altium Designer,20.2.8 (258)*
G04*
G04 Layer_Color=255*
%FSLAX25Y25*%
%MOIN*%
G70*
G04*
G04 #@! TF.SameCoordinates,527F6DBC-4CBC-4D53-8A28-EBD6D6C4F68D*
G04*
G04*
G04 #@! TF.FilePolarity,Positive*
G04*
G01*
G75*
%ADD19R,0.06299X0.06000*%
%ADD20R,0.06437X0.10630*%
%ADD21O,0.04811X0.01433*%
%ADD22R,0.07874X0.07874*%
%ADD23R,0.04724X0.03661*%
%ADD24R,0.05512X0.04724*%
%ADD25R,0.05421X0.04459*%
%ADD26R,0.03150X0.03543*%
%ADD27R,0.05102X0.06919*%
%ADD28R,0.05049X0.11055*%
%ADD29R,0.03175X0.03402*%
%ADD30R,0.09843X0.04724*%
%ADD31R,0.25591X0.23622*%
%ADD32R,0.09354X0.08691*%
%ADD33R,0.10630X0.06437*%
%ADD34R,0.11929X0.15039*%
%ADD65C,0.13780*%
%ADD66C,0.06299*%
%ADD67C,0.19685*%
%ADD68C,0.19685*%
%ADD69C,0.09055*%
D19*
X86720Y91235D02*
D03*
Y77735D02*
D03*
D20*
X124526Y108400D02*
D03*
X136474D02*
D03*
X193574Y56500D02*
D03*
X181626D02*
D03*
D21*
X134068Y88661D02*
D03*
X134069Y91220D02*
D03*
Y93779D02*
D03*
X134068Y96339D02*
D03*
X124532Y88661D02*
D03*
X124532Y91220D02*
D03*
Y93779D02*
D03*
X124532Y96339D02*
D03*
D22*
X124445Y122500D02*
D03*
X142555D02*
D03*
D23*
X86600Y115301D02*
D03*
Y127899D02*
D03*
D24*
X98000Y80585D02*
D03*
X98000Y91215D02*
D03*
D25*
X98000Y125204D02*
D03*
Y117596D02*
D03*
D26*
X126556Y73400D02*
D03*
X121045D02*
D03*
D27*
X135200Y66061D02*
D03*
Y79339D02*
D03*
D28*
X86626Y104400D02*
D03*
X97974D02*
D03*
X159226Y56500D02*
D03*
X170574Y56500D02*
D03*
D29*
X113365Y80600D02*
D03*
X107434D02*
D03*
X126766D02*
D03*
X120835D02*
D03*
D30*
X167319Y120900D02*
D03*
X167319Y102900D02*
D03*
X157019Y87800D02*
D03*
X157019Y69800D02*
D03*
D31*
X194681Y111900D02*
D03*
X184381Y78800D02*
D03*
D32*
X86800Y35221D02*
D03*
Y11904D02*
D03*
D33*
X71200Y29537D02*
D03*
X71200Y17588D02*
D03*
X216400Y136626D02*
D03*
X216400Y148574D02*
D03*
X201800Y136626D02*
D03*
X201800Y148574D02*
D03*
X187200Y136626D02*
D03*
X187200Y148574D02*
D03*
D34*
X99124Y188900D02*
D03*
X72076D02*
D03*
X99124Y163100D02*
D03*
X72076D02*
D03*
D65*
X129947Y149453D02*
D03*
D66*
X198600Y13720D02*
D03*
Y33405D02*
D03*
X116300Y13720D02*
D03*
Y33405D02*
D03*
X157450Y13720D02*
D03*
Y33405D02*
D03*
X128600Y186200D02*
D03*
Y166200D02*
D03*
X169800Y186200D02*
D03*
Y166200D02*
D03*
X211000Y186200D02*
D03*
X211000Y166200D02*
D03*
D67*
X233326Y30126D02*
D03*
X258381Y55181D02*
D03*
D68*
X322000Y15000D02*
D03*
Y193900D02*
D03*
D69*
X21015Y13457D02*
D03*
Y33142D02*
D03*
X40700D02*
D03*
Y13457D02*
D03*
Y170664D02*
D03*
Y190349D02*
D03*
X21015D02*
D03*
Y170664D02*
D03*
X40700Y121615D02*
D03*
Y141300D02*
D03*
X21015D02*
D03*
Y121615D02*
D03*
X40700Y62557D02*
D03*
Y82242D02*
D03*
X21015D02*
D03*
Y62557D02*
D03*
M02*
