G04*
G04 #@! TF.GenerationSoftware,Altium Limited,Altium Designer,20.2.8 (258)*
G04*
G04 Layer_Color=16711935*
%FSLAX25Y25*%
%MOIN*%
G70*
G04*
G04 #@! TF.SameCoordinates,18C1B9BA-8449-4E8D-A104-6701744B7602*
G04*
G04*
G04 #@! TF.FilePolarity,Negative*
G04*
G01*
G75*
%ADD12C,0.00600*%
%ADD34C,0.03600*%
%ADD36C,0.05000*%
%ADD38R,0.10500X0.24500*%
%ADD40R,0.10500X0.95500*%
%ADD57C,0.07099*%
%ADD58C,0.20485*%
%ADD59C,0.20485*%
%ADD60C,0.09855*%
%ADD70R,0.10500X0.68571*%
D12*
X253200Y107200D02*
Y132000D01*
Y107200D02*
X327000D01*
Y132000D01*
X253200D02*
X327000D01*
D34*
X212000Y71500D02*
X214000D01*
X197500Y93500D02*
X200000Y91000D01*
X209500Y81500D01*
X177000Y66000D02*
X190500Y52500D01*
X179500Y100000D02*
X182500D01*
X183500Y93500D02*
X197500D01*
X200500Y100000D02*
X209000Y91500D01*
X182500Y100000D02*
X200500D01*
X165000Y87500D02*
X169500Y83000D01*
X165000Y87500D02*
Y97500D01*
X159100Y83400D02*
X170000Y72500D01*
X159100Y83400D02*
Y102100D01*
X164000Y56000D02*
X187500Y33000D01*
X150500Y89500D02*
Y93500D01*
X197595Y33405D02*
X198600D01*
X118500Y154000D02*
Y159500D01*
X69429Y166200D02*
X128248D01*
X66500Y163271D02*
X69429Y166200D01*
X66500Y124544D02*
Y163271D01*
X63571Y121615D02*
X66500Y124544D01*
X21015Y121615D02*
X63571D01*
X124136Y170664D02*
X128600Y166200D01*
X21015Y170664D02*
X124136D01*
X142000Y122000D02*
Y144000D01*
X135000Y118500D02*
Y144000D01*
X144100Y107600D02*
X149000Y112500D01*
X135000Y55855D02*
Y78327D01*
X174000Y157000D02*
X183000Y166000D01*
X183500Y151500D02*
X198000Y166000D01*
X155000Y137500D02*
X165000Y147000D01*
X155000Y122000D02*
X170500Y138000D01*
X164500Y44000D02*
X175500Y33000D01*
X163500Y67500D02*
X197595Y33405D01*
X150500Y93500D02*
Y105700D01*
X211000Y166200D01*
X157450Y33405D02*
Y73050D01*
X144100Y86400D02*
X157450Y73050D01*
X144100Y86400D02*
Y107600D01*
X133500Y160000D02*
X139000Y165500D01*
X134000Y151500D02*
X149000Y166500D01*
X135000Y144000D02*
X157500Y166500D01*
X123500Y153500D02*
Y159500D01*
X118500Y65500D02*
Y154000D01*
X116300Y63300D02*
X118500Y65500D01*
X116300Y33405D02*
Y63300D01*
X129000Y41500D02*
X137500Y33000D01*
X128500Y52000D02*
X147500Y33000D01*
X135000Y55855D02*
X157450Y33405D01*
X123500Y32500D02*
Y48500D01*
X149000Y112500D02*
Y145400D01*
X169800Y166200D01*
X123500Y48500D02*
Y153500D01*
X128500Y52000D02*
X128600Y166200D01*
X198000Y85500D02*
X212000Y71500D01*
X184500Y66000D02*
X197000Y53500D01*
X209900Y66100D02*
X248400D01*
X197500Y78500D02*
X209900Y66100D01*
X208200Y61800D02*
X244700D01*
X197500Y72500D02*
X208200Y61800D01*
X206600Y57400D02*
X244100D01*
X197750Y66250D02*
X206600Y57400D01*
X204600Y52900D02*
X244600D01*
X191000Y66500D02*
X204600Y52900D01*
X174000Y97500D02*
X177500Y94000D01*
X165000Y97500D02*
X168500Y94000D01*
X169500Y97500D02*
X173000Y94000D01*
D36*
X227000Y6000D02*
X231000D01*
X235000Y10000D01*
Y16000D01*
X56000Y34500D02*
Y45000D01*
X21015Y33142D02*
X54642D01*
X56000Y34500D01*
X36500Y55000D02*
X42379Y60879D01*
X31000Y55000D02*
X36500D01*
X35757Y67500D02*
X42379Y60879D01*
X31000Y67500D02*
X35757D01*
X31000Y61000D02*
X39143D01*
X10500Y94000D02*
X50500D01*
X56000Y88500D01*
Y82242D02*
Y88500D01*
X8242Y82242D02*
X21015D01*
Y41515D02*
X23500Y44000D01*
X21015Y39515D02*
Y41515D01*
Y33142D02*
Y39515D01*
Y82242D02*
X56000D01*
Y44000D02*
Y82242D01*
X23500Y44000D02*
X56000D01*
X10500Y132000D02*
X37000D01*
X40700Y135700D01*
Y141300D01*
Y150500D02*
Y153800D01*
X10000Y152000D02*
X11500Y150500D01*
X40700D01*
X10000Y159000D02*
X35500D01*
X40700Y153800D01*
Y141300D02*
Y150500D01*
X9700Y141300D02*
X40700D01*
X10500Y181500D02*
X37500D01*
X40700Y184700D01*
Y190349D01*
X10500Y199000D02*
X11000Y199500D01*
X37500D01*
X41000Y196000D01*
Y191000D02*
Y196000D01*
X9849Y190349D02*
X40700D01*
X11000Y61000D02*
X31000D01*
X11000Y67500D02*
X31000D01*
X205000Y18500D02*
X211500Y25000D01*
X10500Y12000D02*
X48500D01*
X11500Y18500D02*
X48500D01*
X185500Y18500D02*
X210500D01*
X185500Y12000D02*
X211500D01*
X144500D02*
X170000D01*
X144500Y18500D02*
X170500D01*
X104500Y12000D02*
X129500D01*
X104500Y18500D02*
X129500D01*
X11000Y55000D02*
X31000D01*
X11000Y6000D02*
X30500D01*
X48500D01*
X170000Y12000D02*
X185500D01*
X170000Y18500D02*
X185500D01*
X129500Y12000D02*
X144500D01*
X129500Y18500D02*
X144500D01*
X48500Y12000D02*
X104500D01*
X48500Y18500D02*
X104500D01*
X48500Y6000D02*
X211500D01*
X227000D01*
X211500Y12000D02*
X227000D01*
X211500Y18500D02*
X227000D01*
X211500Y25000D02*
X220339Y33839D01*
D38*
X7250Y85750D02*
D03*
D40*
Y158250D02*
D03*
D57*
X198600Y13720D02*
D03*
Y33405D02*
D03*
X116300Y13720D02*
D03*
Y33405D02*
D03*
X157450Y13720D02*
D03*
Y33405D02*
D03*
X128600Y186200D02*
D03*
Y166200D02*
D03*
X169800Y186200D02*
D03*
Y166200D02*
D03*
X211000Y186200D02*
D03*
X211000Y166200D02*
D03*
D58*
X233326Y30126D02*
D03*
X258381Y55181D02*
D03*
D59*
X322000Y15000D02*
D03*
Y193900D02*
D03*
D60*
X21015Y13457D02*
D03*
Y33142D02*
D03*
X40700D02*
D03*
Y13457D02*
D03*
Y170664D02*
D03*
Y190349D02*
D03*
X21015D02*
D03*
Y170664D02*
D03*
X40700Y121615D02*
D03*
Y141300D02*
D03*
X21015D02*
D03*
Y121615D02*
D03*
X40700Y62557D02*
D03*
Y82242D02*
D03*
X21015D02*
D03*
Y62557D02*
D03*
D70*
X7250Y36715D02*
D03*
M02*
