G04*
G04 #@! TF.GenerationSoftware,Altium Limited,Altium Designer,20.2.8 (258)*
G04*
G04 Layer_Color=8388736*
%FSLAX25Y25*%
%MOIN*%
G70*
G04*
G04 #@! TF.SameCoordinates,18C1B9BA-8449-4E8D-A104-6701744B7602*
G04*
G04*
G04 #@! TF.FilePolarity,Negative*
G04*
G01*
G75*
%ADD34C,0.03600*%
%ADD35C,0.02400*%
%ADD36C,0.05000*%
%ADD37C,0.04800*%
%ADD38R,0.10500X0.24500*%
%ADD39R,0.10500X0.68500*%
%ADD40R,0.10500X0.95500*%
%ADD41R,0.07237X0.11430*%
%ADD42O,0.05211X0.01833*%
%ADD43R,0.08674X0.08674*%
%ADD44R,0.05524X0.04461*%
%ADD45R,0.06115X0.06351*%
%ADD46R,0.06312X0.05524*%
%ADD47R,0.06221X0.05259*%
%ADD48R,0.03950X0.04343*%
%ADD49R,0.05902X0.07719*%
%ADD50R,0.05849X0.11855*%
%ADD51R,0.03975X0.04202*%
%ADD52R,0.10642X0.05524*%
%ADD53R,0.26391X0.24422*%
%ADD54R,0.10154X0.09491*%
%ADD55R,0.11430X0.07237*%
%ADD56R,0.12729X0.15839*%
%ADD57C,0.07099*%
%ADD58C,0.20485*%
%ADD59C,0.20485*%
%ADD60C,0.09855*%
D34*
X124900Y138900D02*
X152500D01*
X70300Y113300D02*
X75600Y118600D01*
X70500Y59500D02*
X72000Y58000D01*
X75000Y55000D02*
X119500D01*
X72000Y58000D02*
X75000Y55000D01*
X159100Y97200D02*
Y102100D01*
Y97200D02*
X164700D01*
X74500Y48500D02*
X135500D01*
X70500Y52500D02*
X74500Y48500D01*
X96095Y33405D02*
X157450D01*
X99500Y27500D02*
X201000D01*
X206500Y33000D01*
X211000Y37000D02*
Y40500D01*
X206500Y33000D02*
Y40500D01*
X212000Y45500D02*
X214000Y43500D01*
X205000Y45500D02*
X212000D01*
X194500Y40000D02*
X196500D01*
X157450Y33405D02*
X198600D01*
X202000Y36805D01*
Y42500D01*
X199500Y45000D02*
X202000Y42500D01*
X164000Y45000D02*
X199500D01*
X161000Y48000D02*
X164000Y45000D01*
X153000Y49500D02*
Y56500D01*
X148000Y49000D02*
Y55000D01*
X163000Y40000D02*
X194500D01*
X158500Y44500D02*
X163000Y40000D01*
X146000Y44500D02*
X158500D01*
X143500Y47000D02*
X146000Y44500D01*
X143500Y47000D02*
Y57000D01*
X36500Y55000D02*
X42379Y60879D01*
X31000Y55000D02*
X36500D01*
X35757Y67500D02*
X42379Y60879D01*
X31000Y67500D02*
X35757D01*
X40000Y61000D02*
X42000Y63000D01*
X31000Y61000D02*
X40000D01*
X11000D02*
X31000D01*
X11000Y67500D02*
X31000D01*
X186000Y191500D02*
X195000D01*
X144500D02*
X153000D01*
X200500Y56500D02*
X203500Y53000D01*
X200000Y91000D02*
X206500Y84500D01*
X215900Y66100D02*
X248400D01*
X194000Y88000D02*
X215900Y66100D01*
X214300Y61700D02*
X244800D01*
X194000Y82000D02*
X214300Y61700D01*
X212800Y57200D02*
X244300D01*
X194000Y76000D02*
X212800Y57200D01*
X211200Y52800D02*
X244700D01*
X194000Y70000D02*
X211200Y52800D01*
X174000Y97500D02*
X177500Y94000D01*
X169500Y97500D02*
X173000Y94000D01*
X165000Y97500D02*
X168500Y94000D01*
X11000Y55000D02*
X31000D01*
D35*
X103000Y200500D02*
X106500Y204000D01*
X231000D01*
X234500Y200500D01*
X210200Y104300D02*
Y106300D01*
X194000Y177000D02*
X217500D01*
X152500D02*
X179000D01*
X118000D02*
X137500D01*
X184000Y127000D02*
X206000D01*
X99148Y189900D02*
X109248Y200000D01*
X98500Y162500D02*
X116500Y180500D01*
X94500Y37500D02*
X153355Y37500D01*
X109500Y186000D02*
X228500D01*
X107500Y184000D02*
X109500Y186000D01*
X228500D02*
X233000Y181500D01*
X107500Y179500D02*
Y184000D01*
X104500Y176500D02*
X107500Y179500D01*
X102000Y176500D02*
X104500D01*
X224500Y134500D02*
X228000D01*
X224500Y139000D02*
X225500D01*
X228000Y134500D02*
X230000Y136500D01*
X225500Y139000D02*
X226500Y140000D01*
X184500Y130000D02*
X206000D01*
X234500Y200500D02*
X241000Y194000D01*
X108250Y191250D02*
X113000Y196000D01*
X230000Y136500D02*
X233000Y139500D01*
X226500Y140000D02*
X229000Y142500D01*
X233000Y139500D02*
Y181500D01*
X229000Y142500D02*
Y173500D01*
X222000Y180500D02*
X229000Y173500D01*
X116500Y180500D02*
X222000D01*
X113000Y196000D02*
X225500D01*
X237000Y184500D01*
Y136500D02*
Y184500D01*
X231000Y130500D02*
X237000Y136500D01*
X213281Y130500D02*
X231000D01*
X208891Y126110D02*
X213281Y130500D01*
X210200Y106300D02*
Y121700D01*
X215500Y127000D01*
X233500D01*
X241000Y134500D01*
Y187500D01*
X228500Y200000D02*
X241000Y187500D01*
X109248Y200000D02*
X228500D01*
D36*
X235000Y10000D02*
Y16000D01*
X231000Y6000D02*
X235000Y10000D01*
X227000Y6000D02*
X231000D01*
X98500Y18500D02*
X211500D01*
X59500D02*
X59500Y18500D01*
X40700Y82242D02*
X52500Y94042D01*
X21015Y82242D02*
X32500Y93727D01*
X41500Y45000D02*
X52558D01*
X40700Y33142D02*
X52558Y45000D01*
X9500Y94500D02*
X21015D01*
Y82242D02*
X41000D01*
X9242D02*
X21015D01*
X95000Y42000D02*
X102000D01*
X131000D02*
X136500D01*
X24000Y45000D02*
X56500D01*
X21015Y42015D02*
X24000Y45000D01*
X21015Y33142D02*
Y42015D01*
Y33142D02*
X57358D01*
X21015Y94500D02*
X58000D01*
X56000Y55500D02*
Y76000D01*
X49758Y82242D02*
X56000Y76000D01*
X40700Y82242D02*
X49758D01*
X58000Y94500D02*
X65500Y87000D01*
Y41000D02*
Y87000D01*
Y41000D02*
X69500Y37000D01*
X75500D01*
X211500Y18500D02*
Y25000D01*
X215743Y29243D01*
X98500Y12000D02*
X219500D01*
X60779D02*
X98500D01*
X144500Y159500D02*
X150500D01*
X125400Y152000D02*
X153000D01*
X157500Y156500D01*
X11500Y18500D02*
X48500D01*
X10500Y12000D02*
X48500D01*
X79500Y6000D02*
X98500D01*
X7000D02*
X48500D01*
Y18500D02*
X60500D01*
X48500Y12000D02*
X60500D01*
X48500Y6000D02*
X79500D01*
X98500D02*
X104500D01*
X129500Y12000D02*
X144500D01*
X129500Y6000D02*
X144500D01*
X170000Y12000D02*
X185500D01*
X170000Y6000D02*
X185500D01*
X215743Y29243D02*
X220339Y33839D01*
X219500Y12000D02*
X227000D01*
X219500Y18500D02*
X227000D01*
X211500Y6000D02*
X227000D01*
D37*
X158000Y145000D02*
X162000Y149000D01*
X11000Y165000D02*
X47000D01*
X11000Y175000D02*
X47500D01*
X183000Y158000D02*
X197500D01*
X122000Y145000D02*
X158000D01*
X114500Y137500D02*
X122000Y145000D01*
X86000Y137500D02*
X114500D01*
X64000Y115500D02*
X86000Y137500D01*
X9500Y115500D02*
X64000D01*
X118000Y166000D02*
X121000Y169000D01*
X10000Y125500D02*
X64000D01*
X82500Y144000D01*
X111000D01*
X119500Y152500D01*
Y157500D01*
X128200Y166200D01*
X211000D01*
X68500Y168000D02*
Y176000D01*
Y183500D02*
X69000Y184000D01*
X68500Y176000D02*
Y183500D01*
X60500Y176000D02*
X68500D01*
X50276Y141300D02*
X68000Y159023D01*
X58000Y184000D02*
X60500Y181500D01*
Y173500D02*
Y181500D01*
Y162000D02*
Y173500D01*
X50500Y152000D02*
X60500Y162000D01*
X59500Y138000D02*
X69000Y147500D01*
X19000Y152000D02*
X28500D01*
X19000Y201000D02*
X28000D01*
X64500D02*
X75600Y189900D01*
X57500Y201000D02*
X64500D01*
X28500Y152000D02*
X50500D01*
X28000Y201000D02*
X57500D01*
X40700Y141300D02*
X50276D01*
X21015D02*
X40700D01*
X21015Y190349D02*
X70151D01*
D38*
X7250Y85750D02*
D03*
D39*
Y36750D02*
D03*
D40*
Y158250D02*
D03*
D41*
X124526Y108400D02*
D03*
X136474D02*
D03*
X193574Y56500D02*
D03*
X181626D02*
D03*
D42*
X134068Y88661D02*
D03*
X134069Y91220D02*
D03*
Y93779D02*
D03*
X134068Y96339D02*
D03*
X124532Y88661D02*
D03*
X124532Y91220D02*
D03*
Y93779D02*
D03*
X124532Y96339D02*
D03*
D43*
X124445Y122500D02*
D03*
X142555D02*
D03*
D44*
X86600Y115301D02*
D03*
Y127899D02*
D03*
D45*
X86700Y91255D02*
D03*
X86700Y83145D02*
D03*
D46*
X98000Y80585D02*
D03*
X98000Y91215D02*
D03*
D47*
X98000Y125204D02*
D03*
Y117596D02*
D03*
D48*
X126556Y73400D02*
D03*
X121045D02*
D03*
D49*
X135200Y66061D02*
D03*
Y79339D02*
D03*
D50*
X86626Y104400D02*
D03*
X97974D02*
D03*
X159226Y56500D02*
D03*
X170574Y56500D02*
D03*
D51*
X113365Y80600D02*
D03*
X107434D02*
D03*
X126766D02*
D03*
X120835D02*
D03*
D52*
X167319Y120900D02*
D03*
X167319Y102900D02*
D03*
X157019Y87800D02*
D03*
X157019Y69800D02*
D03*
D53*
X194681Y111900D02*
D03*
X184381Y78800D02*
D03*
D54*
X86800Y35221D02*
D03*
Y11904D02*
D03*
D55*
X71200Y29537D02*
D03*
X71200Y17588D02*
D03*
X216400Y136626D02*
D03*
X216400Y148574D02*
D03*
X201800Y136626D02*
D03*
X201800Y148574D02*
D03*
X187200Y136626D02*
D03*
X187200Y148574D02*
D03*
D56*
X99124Y188900D02*
D03*
X72076D02*
D03*
X99124Y163100D02*
D03*
X72076D02*
D03*
D57*
X198600Y13720D02*
D03*
Y33405D02*
D03*
X116300Y13720D02*
D03*
Y33405D02*
D03*
X157450Y13720D02*
D03*
Y33405D02*
D03*
X128600Y186200D02*
D03*
Y166200D02*
D03*
X169800Y186200D02*
D03*
Y166200D02*
D03*
X211000Y186200D02*
D03*
X211000Y166200D02*
D03*
D58*
X233326Y30126D02*
D03*
X258381Y55181D02*
D03*
D59*
X322000Y15000D02*
D03*
Y193900D02*
D03*
D60*
X21015Y13457D02*
D03*
Y33142D02*
D03*
X40700D02*
D03*
Y13457D02*
D03*
Y170664D02*
D03*
Y190349D02*
D03*
X21015D02*
D03*
Y170664D02*
D03*
X40700Y121615D02*
D03*
Y141300D02*
D03*
X21015D02*
D03*
Y121615D02*
D03*
X40700Y62557D02*
D03*
Y82242D02*
D03*
X21015D02*
D03*
Y62557D02*
D03*
M02*
