G04*
G04 #@! TF.GenerationSoftware,Altium Limited,Altium Designer,20.2.8 (258)*
G04*
G04 Layer_Color=255*
%FSLAX25Y25*%
%MOIN*%
G70*
G04*
G04 #@! TF.SameCoordinates,18C1B9BA-8449-4E8D-A104-6701744B7602*
G04*
G04*
G04 #@! TF.FilePolarity,Positive*
G04*
G01*
G75*
%ADD19O,0.04811X0.01433*%
%ADD63C,0.06299*%
%ADD64C,0.19685*%
%ADD65C,0.19685*%
%ADD66C,0.09055*%
D19*
X294668Y123539D02*
D03*
X294669Y120980D02*
D03*
X294669Y118421D02*
D03*
X294668Y115861D02*
D03*
X285132Y123539D02*
D03*
X285133Y120980D02*
D03*
Y118421D02*
D03*
X285132Y115861D02*
D03*
D63*
X198600Y13720D02*
D03*
Y33405D02*
D03*
X116300Y13720D02*
D03*
Y33405D02*
D03*
X157450Y13720D02*
D03*
Y33405D02*
D03*
X128600Y186200D02*
D03*
Y166200D02*
D03*
X169800Y186200D02*
D03*
Y166200D02*
D03*
X211000Y186200D02*
D03*
X211000Y166200D02*
D03*
D64*
X233326Y30126D02*
D03*
X258381Y55181D02*
D03*
D65*
X322000Y15000D02*
D03*
Y193900D02*
D03*
D66*
X21015Y13457D02*
D03*
Y33142D02*
D03*
X40700D02*
D03*
Y13457D02*
D03*
Y170664D02*
D03*
Y190349D02*
D03*
X21015D02*
D03*
Y170664D02*
D03*
X40700Y121615D02*
D03*
Y141300D02*
D03*
X21015D02*
D03*
Y121615D02*
D03*
X40700Y62557D02*
D03*
Y82242D02*
D03*
X21015D02*
D03*
Y62557D02*
D03*
M02*
