G04*
G04 #@! TF.GenerationSoftware,Altium Limited,Altium Designer,20.2.8 (258)*
G04*
G04 Layer_Physical_Order=2*
G04 Layer_Color=16711680*
%FSLAX25Y25*%
%MOIN*%
G70*
G04*
G04 #@! TF.SameCoordinates,18C1B9BA-8449-4E8D-A104-6701744B7602*
G04*
G04*
G04 #@! TF.FilePolarity,Positive*
G04*
G01*
G75*
%ADD12C,0.00600*%
%ADD19O,0.04811X0.01433*%
%ADD35C,0.02400*%
%ADD36C,0.05000*%
%ADD63C,0.06299*%
%ADD64C,0.19685*%
%ADD65C,0.19685*%
%ADD66C,0.09055*%
%ADD67C,0.05000*%
%ADD68C,0.03600*%
%ADD69C,0.02400*%
G36*
X60000Y177500D02*
X16000D01*
X14000Y175500D01*
Y166000D01*
X16000Y164000D01*
X60000D01*
Y128500D01*
X17500D01*
X14000Y125000D01*
Y110500D01*
X2000D01*
Y206000D01*
X60000D01*
Y177500D01*
D02*
G37*
G36*
X247000Y206000D02*
Y136500D01*
X214295Y103795D01*
X213588Y103796D01*
X211442Y105942D01*
X210780Y106384D01*
X210000Y106539D01*
X158500Y106539D01*
X157720Y106384D01*
X157058Y105942D01*
X154558Y103442D01*
X154116Y102780D01*
X153961Y102000D01*
X153961Y99150D01*
X153961Y81500D01*
X154116Y80720D01*
X154558Y80058D01*
X167558Y67058D01*
X171058Y63558D01*
X187058Y47558D01*
X187720Y47116D01*
X188500Y46961D01*
X210000Y46961D01*
Y32500D01*
X202039Y24539D01*
X64000D01*
Y27539D01*
X102514Y66053D01*
X112500D01*
X113436Y66239D01*
X114230Y66770D01*
X114761Y67564D01*
X114947Y68500D01*
X114761Y69436D01*
X114230Y70230D01*
X113436Y70761D01*
X112500Y70947D01*
X101500D01*
X100564Y70761D01*
X99770Y70230D01*
X64462Y34923D01*
X64000Y35114D01*
X64000Y117939D01*
X64537Y118010D01*
X65437Y118383D01*
X66210Y118976D01*
X69139Y121905D01*
X69732Y122678D01*
X70105Y123578D01*
X70232Y124544D01*
Y161725D01*
X70975Y162468D01*
X124600D01*
Y166200D01*
Y174289D01*
X123784Y174396D01*
X64000D01*
Y206000D01*
X247000Y206000D01*
D02*
G37*
G36*
X60000Y32500D02*
X57000Y29500D01*
Y24500D01*
X57000Y24500D01*
X17500D01*
X15000Y27000D01*
Y48500D01*
X47000D01*
X47000Y48500D01*
X52000Y53500D01*
Y70000D01*
X48500Y73500D01*
X2000D01*
Y98000D01*
X60000D01*
Y32500D01*
D02*
G37*
G36*
X210000Y104500D02*
X212500Y102000D01*
X212500Y77500D01*
X221500Y68500D01*
X262500Y68500D01*
X271500Y59500D01*
Y51000D01*
X263500Y43000D01*
X253500D01*
X247500Y49000D01*
X212500Y49000D01*
X188500Y49000D01*
X172500Y65000D01*
X169000Y68500D01*
X156000Y81500D01*
X156000Y99150D01*
X156000Y102000D01*
X158500Y104500D01*
X210000Y104500D01*
D02*
G37*
G36*
X49500Y68500D02*
Y54500D01*
X46500Y51500D01*
X12500D01*
Y26000D01*
X16000Y22500D01*
X203000D01*
X216500Y36000D01*
X222500Y42000D01*
X237500Y42000D01*
X246500Y33000D01*
Y5000D01*
X244000Y2500D01*
X2000Y2500D01*
Y71000D01*
X47000D01*
X49500Y68500D01*
D02*
G37*
%LPC*%
G36*
X211000Y191394D02*
X209656Y191217D01*
X208403Y190698D01*
X207327Y189873D01*
X206502Y188797D01*
X205983Y187544D01*
X205806Y186200D01*
X205983Y184856D01*
X206502Y183603D01*
X207327Y182527D01*
X208403Y181702D01*
X209656Y181183D01*
X211000Y181006D01*
X212344Y181183D01*
X213597Y181702D01*
X214673Y182527D01*
X215498Y183603D01*
X216017Y184856D01*
X216194Y186200D01*
X216017Y187544D01*
X215498Y188797D01*
X214673Y189873D01*
X213597Y190698D01*
X212344Y191217D01*
X211000Y191394D01*
D02*
G37*
G36*
X169800D02*
X168456Y191217D01*
X167203Y190698D01*
X166127Y189873D01*
X165302Y188797D01*
X164783Y187544D01*
X164606Y186200D01*
X164783Y184856D01*
X165302Y183603D01*
X166127Y182527D01*
X167203Y181702D01*
X168456Y181183D01*
X169800Y181006D01*
X171144Y181183D01*
X172397Y181702D01*
X173473Y182527D01*
X174298Y183603D01*
X174817Y184856D01*
X174994Y186200D01*
X174817Y187544D01*
X174298Y188797D01*
X173473Y189873D01*
X172397Y190698D01*
X171144Y191217D01*
X169800Y191394D01*
D02*
G37*
G36*
X128600D02*
X127256Y191217D01*
X126003Y190698D01*
X124927Y189873D01*
X124102Y188797D01*
X123583Y187544D01*
X123406Y186200D01*
X123583Y184856D01*
X124102Y183603D01*
X124927Y182527D01*
X126003Y181702D01*
X127256Y181183D01*
X128600Y181006D01*
X129944Y181183D01*
X131197Y181702D01*
X132273Y182527D01*
X133098Y183603D01*
X133617Y184856D01*
X133794Y186200D01*
X133617Y187544D01*
X133098Y188797D01*
X132273Y189873D01*
X131197Y190698D01*
X129944Y191217D01*
X128600Y191394D01*
D02*
G37*
G36*
X142500Y117946D02*
X141564Y117760D01*
X140770Y117230D01*
X140570Y116930D01*
X134670Y111030D01*
X134139Y110236D01*
X133953Y109300D01*
Y84400D01*
X134139Y83464D01*
X134670Y82670D01*
X135464Y82139D01*
X136400Y81953D01*
X137336Y82139D01*
X138130Y82670D01*
X138661Y83464D01*
X138847Y84400D01*
Y108286D01*
X144230Y113670D01*
X144761Y114464D01*
X144947Y115400D01*
Y115499D01*
X144761Y116436D01*
X144230Y117230D01*
X143436Y117760D01*
X142500Y117946D01*
D02*
G37*
G36*
X198600Y33405D02*
D01*
D01*
D01*
D02*
G37*
%LPD*%
D12*
X253200Y107200D02*
X327000D01*
X253200D02*
Y132000D01*
X327000Y107200D02*
Y132000D01*
X253200D02*
X327000D01*
D19*
X294668Y123539D02*
D03*
X294669Y120980D02*
D03*
X294669Y118421D02*
D03*
X294668Y115861D02*
D03*
X285132Y123539D02*
D03*
X285133Y120980D02*
D03*
Y118421D02*
D03*
X285132Y115861D02*
D03*
D35*
X142500Y115400D02*
Y115499D01*
X136400Y109300D02*
X142500Y115400D01*
X136400Y84400D02*
Y109300D01*
X60500Y27500D02*
X101500Y68500D01*
X112500D01*
X60500Y18500D02*
Y27500D01*
D36*
X63571Y121615D02*
X66500Y124544D01*
X69429Y166200D02*
X128600D01*
X66500Y163271D02*
X69429Y166200D01*
X40700Y121615D02*
X63571D01*
X66500Y124544D02*
Y163271D01*
X40700Y170664D02*
X123784D01*
X21015Y121615D02*
X40700D01*
X123784Y170664D02*
X128248Y166200D01*
X21015Y170664D02*
X40700D01*
D63*
X198600Y13720D02*
D03*
Y33405D02*
D03*
X116300Y13720D02*
D03*
Y33405D02*
D03*
X157450Y13720D02*
D03*
Y33405D02*
D03*
X128600Y186200D02*
D03*
Y166200D02*
D03*
X169800Y186200D02*
D03*
Y166200D02*
D03*
X211000Y186200D02*
D03*
X211000Y166200D02*
D03*
D64*
X233326Y30126D02*
D03*
X258381Y55181D02*
D03*
D65*
X322000Y15000D02*
D03*
Y193900D02*
D03*
D66*
X21015Y13457D02*
D03*
Y33142D02*
D03*
X40700D02*
D03*
Y13457D02*
D03*
Y170664D02*
D03*
Y190349D02*
D03*
X21015D02*
D03*
Y170664D02*
D03*
X40700Y121615D02*
D03*
Y141300D02*
D03*
X21015D02*
D03*
Y121615D02*
D03*
X40700Y62557D02*
D03*
Y82242D02*
D03*
X21015D02*
D03*
Y62557D02*
D03*
D67*
X235000Y16000D02*
D03*
Y10000D02*
D03*
X56000Y34500D02*
D03*
Y41500D02*
D03*
X16000Y77000D02*
D03*
X46500D02*
D03*
X30500D02*
D03*
X16000Y88500D02*
D03*
X36000D02*
D03*
X56000D02*
D03*
Y77000D02*
D03*
Y48500D02*
D03*
Y55500D02*
D03*
Y69500D02*
D03*
Y62500D02*
D03*
X7000Y76500D02*
D03*
Y95000D02*
D03*
Y88833D02*
D03*
Y82667D02*
D03*
X143500Y71000D02*
D03*
X152500Y63500D02*
D03*
X148000Y60000D02*
D03*
X143500Y63500D02*
D03*
X148000Y67500D02*
D03*
Y74000D02*
D03*
X170500Y144500D02*
D03*
X176400D02*
D03*
Y150300D02*
D03*
X170700D02*
D03*
X7000Y61350D02*
D03*
Y6000D02*
D03*
Y67500D02*
D03*
Y55200D02*
D03*
Y49050D02*
D03*
Y12150D02*
D03*
Y18300D02*
D03*
Y24450D02*
D03*
Y30600D02*
D03*
Y36750D02*
D03*
Y42900D02*
D03*
X31000Y67500D02*
D03*
Y61000D02*
D03*
Y55000D02*
D03*
X80500Y19500D02*
D03*
X79500Y6000D02*
D03*
X73000D02*
D03*
X67000D02*
D03*
X227000Y18500D02*
D03*
Y12000D02*
D03*
Y6000D02*
D03*
X219500Y18500D02*
D03*
Y12000D02*
D03*
Y6000D02*
D03*
X220339Y33839D02*
D03*
X215743Y29243D02*
D03*
X211500Y25000D02*
D03*
Y18500D02*
D03*
Y12000D02*
D03*
Y6000D02*
D03*
X144500Y18500D02*
D03*
Y12000D02*
D03*
Y6000D02*
D03*
X137000Y18500D02*
D03*
Y12000D02*
D03*
Y6000D02*
D03*
X129500Y18500D02*
D03*
Y12000D02*
D03*
Y6000D02*
D03*
X185500Y18500D02*
D03*
Y12000D02*
D03*
Y6000D02*
D03*
X178000Y18500D02*
D03*
Y12000D02*
D03*
Y6000D02*
D03*
X170000Y18500D02*
D03*
Y12000D02*
D03*
Y6000D02*
D03*
X104500Y18500D02*
D03*
Y12000D02*
D03*
Y6000D02*
D03*
X98500Y18500D02*
D03*
Y12000D02*
D03*
Y6000D02*
D03*
X30500Y18500D02*
D03*
Y12000D02*
D03*
Y6000D02*
D03*
X48500Y18500D02*
D03*
Y12000D02*
D03*
Y6000D02*
D03*
X54500Y18500D02*
D03*
Y12000D02*
D03*
Y6000D02*
D03*
X60500D02*
D03*
Y12000D02*
D03*
Y18500D02*
D03*
D68*
X159100Y102100D02*
D03*
Y97200D02*
D03*
X194000Y70000D02*
D03*
X187500D02*
D03*
X180500D02*
D03*
X194000Y76000D02*
D03*
X187500D02*
D03*
X180500D02*
D03*
X194000Y82000D02*
D03*
X187500D02*
D03*
X180500D02*
D03*
X174000Y70000D02*
D03*
Y76000D02*
D03*
Y82000D02*
D03*
X187500Y88000D02*
D03*
X180500D02*
D03*
X194000D02*
D03*
X174000D02*
D03*
Y97500D02*
D03*
X169500D02*
D03*
X165000D02*
D03*
X177500Y94000D02*
D03*
X173000D02*
D03*
X168500D02*
D03*
D69*
X142500Y115499D02*
D03*
X136400Y84400D02*
D03*
X112500Y68500D02*
D03*
M02*
